<svg width="19" height="19" viewBox="0 0 19 19" fill="none" xmlns="http://www.w3.org/2000/svg">
<path d="M1.5 6.82H6.16V8.98H1.5V6.82ZM0.2 1.54H7.58V9.66H5.26V3.76H0.2V1.54ZM0.2 6.82H2.52V12.94C2.52 13.66 2.64 13.74 3.36 13.74C3.68 13.74 5 13.74 5.4 13.74C6.02 13.74 6.14 13.46 6.22 11.64C6.7 12.02 7.7 12.4 8.36 12.56C8.08 15.28 7.44 16 5.62 16C5.14 16 3.48 16 3.02 16C0.82 16 0.2 15.34 0.2 12.98V6.82ZM10.08 3.52H18.4V5.8H10.08V3.52ZM10.24 0.039999L12.74 0.479999C11.94 4.18 10.54 7.66 8.74 9.82C8.28 9.4 7.22 8.64 6.62 8.28C8.4 6.42 9.62 3.3 10.24 0.039999ZM14.6 4.5L17.04 4.76C16.02 12.14 13.52 16.46 7.72 18.9C7.48 18.34 6.74 17.28 6.28 16.76C11.68 14.82 13.82 11.04 14.6 4.5ZM11.16 5.32C12.14 10.6 14.3 14.82 18.7 16.64C18.16 17.12 17.4 18.1 17.04 18.76C12.3 16.5 10.16 11.9 8.96 5.7L11.16 5.32Z" fill="white"/>
</svg>
