<svg width="60" height="60" viewBox="0 0 60 60" fill="none" xmlns="http://www.w3.org/2000/svg">
<path d="M20.8636 31H58.1364C58.6306 31 59.1047 31.2107 59.4542 31.5858C59.8037 31.9609 60 32.4696 60 33C60 33.5304 59.8037 34.0391 59.4542 34.4142C59.1047 34.7893 58.6306 35 58.1364 35H20.8636C20.3694 35 19.8953 34.7893 19.5458 34.4142C19.1963 34.0391 19 33.5304 19 33C19 32.4696 19.1963 31.9609 19.5458 31.5858C19.8953 31.2107 20.3694 31 20.8636 31Z" fill="white"/>
<path d="M20.952 33L34.5202 46.2655C34.8274 46.5659 35 46.9734 35 47.3982C35 47.823 34.8274 48.2304 34.5202 48.5308C34.2131 48.8312 33.7964 49 33.362 49C32.9276 49 32.511 48.8312 32.2038 48.5308L17.4806 34.1327C17.3283 33.984 17.2074 33.8075 17.1249 33.6131C17.0425 33.4188 17 33.2104 17 33C17 32.7896 17.0425 32.5812 17.1249 32.3869C17.2074 32.1925 17.3283 32.0159 17.4806 31.8673L32.2038 17.4692C32.511 17.1688 32.9276 17 33.362 17C33.7964 17 34.2131 17.1688 34.5202 17.4692C34.8274 17.7696 35 18.177 35 18.6018C35 19.0266 34.8274 19.4341 34.5202 19.7345L20.952 33Z" fill="white"/>
</svg>
