<svg width="370" height="548" viewBox="0 0 370 548" fill="none" xmlns="http://www.w3.org/2000/svg">
<path d="M338.808 178.956L336.169 178.249L355.647 105.555C358.637 94.3959 357.095 82.5125 351.36 72.5187C345.626 62.525 336.168 55.2397 325.068 52.2654L171.864 11.2144C166.367 9.74174 160.633 9.37177 154.989 10.1256C149.345 10.8795 143.9 12.7425 138.967 15.6081C134.034 18.4738 129.708 22.2861 126.237 26.8273C122.766 31.3685 120.217 36.5497 118.737 42.0751L11.8752 440.888C8.88516 452.047 10.4271 463.93 16.1617 473.924C21.8964 483.918 31.354 491.203 42.4541 494.177L195.658 535.228C206.758 538.202 218.591 536.622 228.555 530.834C238.518 525.047 245.795 515.526 248.785 504.368L322.303 229.994L324.942 230.701L338.808 178.956Z" fill="#3F3D56"/>
<path d="M323.826 63.6602L303.829 58.3021C304.141 60.8153 303.833 63.3688 302.932 65.7375C302.031 68.1063 300.564 70.2175 298.662 71.8854C296.759 73.5532 294.478 74.7264 292.02 75.3015C289.563 75.8767 287.004 75.8362 284.568 75.1836L196.799 51.666C194.364 51.0134 192.128 49.7687 190.287 48.0418C188.447 46.3148 187.058 44.1585 186.245 41.7627C185.431 39.367 185.216 36.8054 185.62 34.3036C186.024 31.8018 187.034 29.4365 188.561 27.4162L169.883 22.4115C161.594 20.1903 152.757 21.3706 145.316 25.6926C137.876 30.0147 132.442 37.1244 130.209 45.4579L23.5022 443.692C21.2693 452.025 22.4208 460.899 26.7034 468.363C30.986 475.826 38.0489 481.266 46.3383 483.488L200.281 524.736C208.57 526.957 217.407 525.777 224.847 521.455C232.288 517.133 237.722 510.023 239.955 501.69L346.662 103.456C348.894 95.1222 347.743 86.2479 343.46 78.7849C339.178 71.3218 332.115 65.8813 323.826 63.6602Z" fill="white"/>
<path d="M282.713 182.326L144.297 143.899C143.618 143.71 143.042 143.257 142.695 142.641C142.349 142.025 142.26 141.296 142.449 140.613L152.031 106.119C152.222 105.436 152.674 104.857 153.288 104.508C153.903 104.158 154.63 104.068 155.31 104.256L293.728 142.682C294.407 142.872 294.983 143.324 295.329 143.94C295.676 144.557 295.764 145.286 295.575 145.969L285.993 180.462C285.803 181.144 285.351 181.724 284.736 182.073C284.121 182.422 283.394 182.513 282.715 182.325L282.713 182.326ZM155.024 105.287C154.616 105.174 154.179 105.228 153.811 105.438C153.442 105.648 153.171 105.995 153.057 106.405L143.474 140.898C143.361 141.307 143.414 141.745 143.622 142.115C143.83 142.484 144.176 142.756 144.583 142.869L283 181.296C283.408 181.409 283.845 181.354 284.213 181.145C284.582 180.935 284.853 180.587 284.967 180.178L294.551 145.687C294.665 145.277 294.612 144.839 294.404 144.47C294.196 144.1 293.85 143.829 293.442 143.715L155.024 105.287Z" fill="#3F3D56"/>
<path d="M172.234 139.592C178.213 139.27 182.812 134.143 182.506 128.142C182.201 122.14 177.105 117.536 171.126 117.858C165.147 118.18 160.548 123.307 160.853 129.308C161.159 135.31 166.254 139.914 172.234 139.592Z" fill="#FF6584"/>
<path d="M197.736 128.426C197.507 128.363 197.269 128.345 197.033 128.375C196.797 128.404 196.57 128.479 196.363 128.597C196.156 128.714 195.975 128.871 195.828 129.059C195.682 129.247 195.574 129.462 195.51 129.691C195.446 129.921 195.428 130.161 195.457 130.397C195.485 130.634 195.56 130.862 195.676 131.069C195.793 131.276 195.949 131.458 196.136 131.605C196.322 131.751 196.536 131.859 196.765 131.923L278.805 154.698C279.033 154.762 279.272 154.779 279.508 154.75C279.743 154.721 279.971 154.645 280.178 154.528C280.384 154.41 280.566 154.253 280.712 154.065C280.859 153.877 280.967 153.663 281.031 153.433C281.095 153.203 281.113 152.964 281.084 152.727C281.056 152.491 280.981 152.263 280.864 152.055C280.748 151.848 280.592 151.666 280.405 151.52C280.218 151.373 280.005 151.265 279.776 151.202L197.736 128.426Z" fill="#E6E6E6"/>
<path d="M194.822 138.916C194.593 138.853 194.355 138.835 194.119 138.864C193.883 138.894 193.656 138.969 193.449 139.087C193.242 139.204 193.061 139.361 192.914 139.549C192.768 139.737 192.66 139.952 192.596 140.181C192.532 140.411 192.514 140.651 192.542 140.887C192.571 141.123 192.646 141.352 192.762 141.559C192.879 141.766 193.035 141.948 193.221 142.095C193.408 142.241 193.622 142.349 193.85 142.413L229.153 152.213C229.381 152.277 229.62 152.294 229.856 152.265C230.091 152.236 230.319 152.16 230.525 152.043C230.732 151.925 230.914 151.768 231.06 151.58C231.207 151.393 231.315 151.178 231.379 150.948C231.442 150.719 231.461 150.479 231.432 150.242C231.403 150.006 231.329 149.778 231.212 149.57C231.096 149.363 230.94 149.181 230.753 149.035C230.566 148.888 230.353 148.78 230.124 148.717L194.822 138.916Z" fill="#E6E6E6"/>
<path d="M260.584 280.95L202.822 242.421C202.184 241.994 201.742 241.329 201.591 240.571C201.441 239.814 201.594 239.025 202.019 238.378L223.497 205.73C223.923 205.085 224.584 204.634 225.336 204.479C226.088 204.323 226.869 204.474 227.507 204.898L285.272 243.428C285.909 243.854 286.352 244.519 286.502 245.277C286.653 246.035 286.499 246.824 286.075 247.471L264.597 280.119C264.171 280.765 263.509 281.216 262.757 281.372C262.004 281.528 261.223 281.376 260.584 280.95ZM226.865 205.876C226.482 205.621 226.014 205.53 225.562 205.624C225.111 205.717 224.715 205.988 224.459 206.375L202.981 239.023C202.727 239.411 202.634 239.884 202.725 240.339C202.815 240.794 203.081 241.193 203.464 241.448L261.228 279.976C261.612 280.23 262.08 280.321 262.531 280.227C262.982 280.134 263.379 279.864 263.634 279.476L285.113 246.828C285.367 246.44 285.46 245.967 285.369 245.512C285.279 245.058 285.013 244.659 284.631 244.403L226.865 205.876Z" fill="#3F3D56"/>
<path d="M180.655 259.69L126.356 223.234L153.961 209.13C154.455 208.877 155.005 208.76 155.556 208.792C156.106 208.823 156.637 209.002 157.095 209.309C157.553 209.617 157.922 210.042 158.165 210.544C158.409 211.045 158.517 211.604 158.481 212.164L157.606 225.519L177.657 215.272C178.277 214.956 178.965 214.81 179.654 214.85C180.343 214.889 181.007 215.113 181.581 215.498C182.154 215.883 182.616 216.416 182.921 217.043C183.225 217.671 183.361 218.37 183.316 219.072L180.655 259.69ZM128.673 223.367L179.63 257.579L182.156 219.008C182.188 218.513 182.092 218.02 181.877 217.579C181.663 217.137 181.337 216.761 180.933 216.49C180.529 216.219 180.061 216.061 179.576 216.033C179.09 216.005 178.605 216.108 178.169 216.331L156.313 227.497L157.322 212.098C157.345 211.745 157.276 211.393 157.123 211.077C156.97 210.761 156.737 210.493 156.448 210.299C156.16 210.105 155.825 209.993 155.478 209.973C155.132 209.953 154.785 210.026 154.473 210.186L128.673 223.367Z" fill="#FF6584"/>
<path d="M177.747 257.716L119.226 218.985C118.58 218.557 118.13 217.89 117.976 217.131C117.821 216.372 117.974 215.583 118.402 214.937L140.021 182.325C140.45 181.68 141.118 181.231 141.877 181.077C142.637 180.923 143.427 181.077 144.074 181.504L202.595 220.236C203.241 220.664 203.691 221.331 203.845 222.09C204 222.849 203.846 223.638 203.419 224.284L181.799 256.895C181.37 257.54 180.703 257.989 179.943 258.143C179.184 258.297 178.394 258.143 177.747 257.716ZM143.429 182.477C143.041 182.221 142.567 182.129 142.111 182.221C141.655 182.314 141.255 182.583 140.998 182.97L119.378 215.582C119.121 215.97 119.03 216.443 119.122 216.898C119.215 217.354 119.485 217.754 119.873 218.011L178.394 256.743C178.782 256.999 179.256 257.091 179.712 256.999C180.167 256.906 180.568 256.637 180.825 256.25L202.445 223.638C202.702 223.25 202.794 222.777 202.701 222.322C202.608 221.866 202.338 221.466 201.951 221.209L143.429 182.477Z" fill="#3F3D56"/>
<path d="M260.897 250.966C261.112 251.111 261.354 251.211 261.609 251.261C261.864 251.31 262.126 251.308 262.381 251.254C262.636 251.2 262.879 251.095 263.095 250.946C263.311 250.797 263.497 250.606 263.642 250.384C263.787 250.162 263.888 249.914 263.939 249.653C263.99 249.393 263.99 249.125 263.94 248.866C263.889 248.607 263.789 248.361 263.645 248.142C263.501 247.923 263.315 247.736 263.099 247.591L229.792 225.195C229.577 225.05 229.334 224.95 229.08 224.9C228.825 224.851 228.563 224.853 228.308 224.907C228.053 224.961 227.81 225.066 227.594 225.215C227.377 225.364 227.192 225.555 227.047 225.777C226.902 225.999 226.801 226.247 226.75 226.507C226.699 226.768 226.699 227.035 226.749 227.295C226.8 227.554 226.9 227.8 227.044 228.019C227.188 228.238 227.374 228.425 227.59 228.57L260.897 250.966Z" fill="#FF6584"/>
<path d="M258.559 259.692C258.776 259.832 259.019 259.931 259.273 259.981C259.527 260.032 259.789 260.033 260.042 259.986C260.295 259.939 260.535 259.843 260.748 259.705C260.962 259.567 261.144 259.39 261.285 259.182C261.426 258.975 261.523 258.742 261.57 258.496C261.617 258.251 261.613 257.998 261.559 257.752C261.505 257.506 261.402 257.272 261.255 257.063C261.108 256.854 260.921 256.675 260.703 256.535L227.198 234.878C226.981 234.738 226.739 234.639 226.484 234.589C226.23 234.538 225.968 234.537 225.715 234.584C225.462 234.631 225.222 234.727 225.009 234.865C224.795 235.003 224.613 235.18 224.472 235.388C224.331 235.595 224.234 235.828 224.187 236.074C224.14 236.319 224.144 236.572 224.198 236.818C224.252 237.064 224.355 237.298 224.502 237.507C224.649 237.716 224.837 237.895 225.054 238.035L258.559 259.692Z" fill="#FF6584"/>
<path d="M228.744 370.977L96.4734 334.157C95.8242 333.975 95.2616 333.585 94.9091 333.071C94.5567 332.557 94.4431 331.961 94.5932 331.415L108.707 280.35C108.859 279.805 109.262 279.353 109.828 279.095C110.394 278.837 111.076 278.793 111.726 278.973L243.996 315.792C244.646 315.974 245.208 316.364 245.561 316.878C245.913 317.392 246.027 317.987 245.876 318.534L231.762 369.599C231.61 370.145 231.207 370.596 230.641 370.855C230.076 371.113 229.393 371.157 228.744 370.977ZM111.498 279.796C111.108 279.688 110.698 279.714 110.359 279.869C110.019 280.024 109.778 280.295 109.687 280.623L95.573 331.688C95.4829 332.015 95.5511 332.373 95.7626 332.681C95.9741 332.989 96.3117 333.223 96.7013 333.332L228.972 370.153C229.362 370.261 229.771 370.235 230.111 370.08C230.45 369.925 230.692 369.654 230.783 369.326L244.898 318.261C244.988 317.933 244.92 317.576 244.708 317.267C244.497 316.959 244.159 316.725 243.769 316.616L111.498 279.796Z" fill="#3F3D56"/>
<path d="M127.579 311.346C133.261 311.329 137.433 307.359 136.897 302.478C136.361 297.597 131.32 293.655 125.638 293.672C119.956 293.689 115.784 297.66 116.32 302.541C116.856 307.421 121.897 311.364 127.579 311.346Z" fill="#FF6584"/>
<path d="M151.414 303.331C150.969 303.208 150.502 303.237 150.114 303.413C149.726 303.588 149.449 303.895 149.346 304.266C149.242 304.637 149.319 305.041 149.56 305.39C149.801 305.739 150.187 306.004 150.632 306.127L229.703 327.948C229.923 328.009 230.151 328.033 230.374 328.019C230.598 328.005 230.811 327.953 231.003 327.866C231.195 327.779 231.362 327.659 231.494 327.513C231.626 327.367 231.72 327.197 231.771 327.013C231.823 326.829 231.83 326.636 231.793 326.443C231.757 326.25 231.676 326.062 231.557 325.889C231.437 325.716 231.281 325.562 231.097 325.435C230.914 325.309 230.706 325.213 230.485 325.152L151.414 303.331Z" fill="#E6E6E6"/>
<path d="M149.068 311.72C148.847 311.659 148.619 311.635 148.396 311.649C148.173 311.663 147.959 311.715 147.767 311.802C147.575 311.889 147.408 312.009 147.276 312.155C147.145 312.301 147.05 312.471 146.999 312.655C146.948 312.839 146.94 313.032 146.977 313.225C147.014 313.418 147.094 313.606 147.214 313.779C147.333 313.952 147.489 314.106 147.673 314.233C147.857 314.359 148.065 314.455 148.285 314.516L182.31 323.906C182.53 323.967 182.758 323.991 182.981 323.977C183.204 323.963 183.418 323.911 183.61 323.824C183.802 323.737 183.969 323.617 184.101 323.471C184.233 323.324 184.327 323.154 184.378 322.971C184.43 322.787 184.437 322.593 184.4 322.4C184.363 322.208 184.283 322.019 184.164 321.846C184.044 321.674 183.888 321.52 183.704 321.393C183.52 321.267 183.312 321.17 183.092 321.11L149.068 311.72Z" fill="#E6E6E6"/>
<path d="M114.353 316.587C113.077 316.235 111.864 316.576 111.648 317.349C111.433 318.122 112.295 319.034 113.571 319.386L222.665 349.493C223.941 349.845 225.154 349.504 225.37 348.731C225.585 347.958 224.723 347.046 223.447 346.694L114.353 316.587Z" fill="#E6E6E6"/>
<path d="M112.006 324.977C110.73 324.625 109.517 324.966 109.301 325.739C109.086 326.512 109.949 327.423 111.225 327.776L220.318 357.883C221.594 358.235 222.808 357.894 223.023 357.121C223.239 356.348 222.376 355.436 221.1 355.084L112.006 324.977Z" fill="#E6E6E6"/>
<path d="M130.642 446.033L77.547 431.293C76.9606 431.129 76.4634 430.739 76.1644 430.207C75.8654 429.675 75.7891 429.045 75.9521 428.456L91.384 372.904C91.5484 372.315 91.9386 371.815 92.4691 371.514C92.9996 371.212 93.627 371.134 94.2138 371.296L147.31 386.036C147.896 386.2 148.393 386.59 148.692 387.122C148.991 387.654 149.068 388.284 148.905 388.873L133.472 444.425C133.308 445.014 132.917 445.514 132.387 445.815C131.856 446.117 131.229 446.195 130.642 446.033ZM93.9651 372.185C93.613 372.087 93.2366 372.134 92.9183 372.315C92.6 372.496 92.366 372.796 92.2674 373.15L76.835 428.701C76.7372 429.055 76.7831 429.433 76.9625 429.752C77.1419 430.071 77.4403 430.305 77.7921 430.403L130.889 445.144C131.241 445.241 131.618 445.194 131.936 445.013C132.254 444.832 132.488 444.532 132.587 444.179L148.019 388.627C148.117 388.274 148.071 387.896 147.891 387.577C147.712 387.258 147.414 387.023 147.062 386.925L93.9651 372.185Z" fill="#2F2E41"/>
<path d="M196.128 464.213L143.03 449.472C142.444 449.309 141.947 448.918 141.648 448.387C141.349 447.855 141.272 447.225 141.435 446.636L156.867 391.084C157.032 390.495 157.422 389.995 157.952 389.694C158.483 389.392 159.11 389.314 159.697 389.476L212.794 404.217C213.381 404.38 213.878 404.771 214.177 405.303C214.476 405.834 214.552 406.464 214.389 407.053L198.957 462.604C198.793 463.194 198.403 463.694 197.872 463.995C197.342 464.297 196.714 464.375 196.128 464.213ZM159.451 390.365C159.098 390.268 158.722 390.315 158.404 390.496C158.085 390.677 157.851 390.977 157.753 391.33L142.32 446.882C142.223 447.235 142.268 447.613 142.448 447.932C142.627 448.251 142.926 448.485 143.278 448.583L196.375 463.325C196.727 463.422 197.103 463.375 197.421 463.194C197.74 463.013 197.974 462.713 198.072 462.36L213.504 406.808C213.602 406.454 213.556 406.077 213.377 405.758C213.197 405.439 212.899 405.204 212.547 405.106L159.451 390.365Z" fill="#2F2E41"/>
<path d="M102.343 385.893C102.146 385.838 101.94 385.822 101.736 385.847C101.533 385.872 101.336 385.937 101.157 386.039C100.979 386.14 100.822 386.276 100.695 386.438C100.569 386.6 100.475 386.786 100.42 386.984C100.365 387.182 100.349 387.389 100.374 387.594C100.399 387.798 100.463 387.995 100.564 388.174C100.665 388.353 100.8 388.51 100.961 388.636C101.123 388.763 101.307 388.856 101.505 388.91L131.974 397.369C132.372 397.479 132.798 397.426 133.158 397.221C133.518 397.016 133.782 396.677 133.894 396.277C134.005 395.877 133.953 395.45 133.751 395.089C133.548 394.728 133.211 394.462 132.813 394.351L102.343 385.893Z" fill="#FF6584"/>
<path d="M99.8737 394.782C99.6763 394.727 99.47 394.712 99.2665 394.737C99.063 394.762 98.8663 394.827 98.6877 394.929C98.5091 395.03 98.352 395.166 98.2255 395.328C98.099 395.49 98.0055 395.676 97.9505 395.874C97.8954 396.072 97.8797 396.279 97.9044 396.484C97.9291 396.688 97.9937 396.885 98.0945 397.064C98.1952 397.243 98.3301 397.4 98.4916 397.526C98.653 397.653 98.8378 397.746 99.0352 397.8L129.505 406.261C129.903 406.37 130.328 406.317 130.688 406.112C131.047 405.907 131.311 405.568 131.422 405.168C131.533 404.769 131.482 404.342 131.28 403.981C131.078 403.62 130.741 403.355 130.344 403.243L99.8737 394.782Z" fill="#FF6584"/>
<path d="M187.997 449.616C188.395 449.726 188.821 449.673 189.181 449.468C189.54 449.263 189.805 448.924 189.916 448.524C190.027 448.124 189.976 447.697 189.773 447.336C189.57 446.975 189.233 446.709 188.835 446.598L158.366 438.14C157.968 438.03 157.542 438.083 157.182 438.288C156.822 438.492 156.558 438.832 156.447 439.232C156.335 439.632 156.387 440.059 156.59 440.42C156.792 440.781 157.13 441.046 157.527 441.157L187.997 449.616Z" fill="#FF6584"/>
<path d="M190.465 440.726C190.663 440.781 190.869 440.797 191.073 440.771C191.276 440.746 191.473 440.681 191.651 440.58C191.83 440.479 191.987 440.343 192.114 440.181C192.24 440.019 192.334 439.833 192.389 439.635C192.444 439.436 192.459 439.229 192.435 439.025C192.41 438.821 192.345 438.624 192.245 438.445C192.144 438.266 192.009 438.109 191.848 437.982C191.686 437.856 191.501 437.763 191.304 437.708L160.835 429.249C160.637 429.194 160.431 429.179 160.227 429.204C160.024 429.229 159.827 429.294 159.649 429.395C159.47 429.497 159.313 429.632 159.186 429.795C159.06 429.957 158.966 430.142 158.911 430.341C158.856 430.539 158.841 430.746 158.865 430.95C158.89 431.155 158.955 431.352 159.055 431.531C159.156 431.71 159.291 431.867 159.453 431.993C159.614 432.119 159.799 432.213 159.996 432.267L190.465 440.726Z" fill="#FF6584"/>
</svg>
