<svg width="25" height="25" viewBox="0 0 25 25" fill="none" xmlns="http://www.w3.org/2000/svg">
<g clip-path="url(#clip0_239_86)">
<path fill-rule="evenodd" clip-rule="evenodd" d="M12.5 0.552246C5.874 0.552246 0.5 5.92425 0.5 12.5522C0.5 19.1792 5.874 24.5522 12.5 24.5522C19.127 24.5522 24.5 19.1792 24.5 12.5522C24.5 5.92425 19.127 0.552246 12.5 0.552246ZM15.748 18.9002L15.377 17.6052L16.273 18.4382L17.12 19.2222L18.625 20.5522V7.99425C18.625 7.19625 17.981 6.55225 17.19 6.55225H7.81C7.019 6.55225 6.375 7.19625 6.375 7.99425V17.4582C6.375 18.2562 7.019 18.9002 7.81 18.9002H15.748ZM14.488 15.6942L14.026 15.1272C14.943 14.8682 15.293 14.2942 15.293 14.2942C15.006 14.4832 14.733 14.6162 14.488 14.7072C14.138 14.8542 13.802 14.9522 13.473 15.0082C12.801 15.1342 12.185 15.0992 11.66 15.0012C11.261 14.9242 10.918 14.8122 10.631 14.7002C10.47 14.6372 10.295 14.5602 10.12 14.4622L10.092 14.4462L10.085 14.4432L10.057 14.4272L10.029 14.4062L9.833 14.2872C9.833 14.2872 10.169 14.8472 11.058 15.1132L10.589 15.6942C9.042 15.6452 8.454 14.6302 8.454 14.6302C8.454 12.3762 9.462 10.5492 9.462 10.5492C10.47 9.79325 11.429 9.81425 11.429 9.81425L11.499 9.89825C10.239 10.2622 9.658 10.8152 9.658 10.8152L10.071 10.6122C10.82 10.2832 11.415 10.1922 11.66 10.1712L11.779 10.1572C12.206 10.1012 12.689 10.0872 13.193 10.1432C13.858 10.2202 14.572 10.4162 15.3 10.8152C15.3 10.8152 14.747 10.2902 13.557 9.92625L13.655 9.81425C13.655 9.81425 14.614 9.79325 15.622 10.5492C15.622 10.5492 16.63 12.3762 16.63 14.6302C16.63 14.6302 16.057 15.6072 14.488 15.6942ZM13.788 12.4252C13.389 12.4252 13.074 12.7752 13.074 13.2022C13.074 13.6292 13.396 13.9792 13.788 13.9792C14.187 13.9792 14.502 13.6292 14.502 13.2022C14.502 12.7752 14.187 12.4252 13.788 12.4252ZM11.233 12.4252C10.834 12.4252 10.519 12.7752 10.519 13.2022C10.519 13.6292 10.841 13.9792 11.233 13.9792C11.632 13.9792 11.947 13.6292 11.947 13.2022C11.954 12.7752 11.632 12.4252 11.233 12.4252Z" fill="white"/>
</g>
<defs>
<clipPath id="clip0_239_86">
<rect width="24" height="24" fill="white" transform="translate(0.5 0.552246)"/>
</clipPath>
</defs>
</svg>
