<svg width="24" height="25" viewBox="0 0 24 25" fill="none" xmlns="http://www.w3.org/2000/svg">
<g clip-path="url(#clip0_239_86)">
<path fill-rule="evenodd" clip-rule="evenodd" d="M12 0.104492C5.374 0.104492 0 5.47649 0 12.1045C0 18.7315 5.374 24.1045 12 24.1045C18.627 24.1045 24 18.7315 24 12.1045C24 5.47649 18.627 0.104492 12 0.104492ZM15.248 18.4525L14.877 17.1575L15.773 17.9905L16.62 18.7745L18.125 20.1045V7.54649C18.125 6.74849 17.481 6.10449 16.69 6.10449H7.31C6.519 6.10449 5.875 6.74849 5.875 7.54649V17.0105C5.875 17.8085 6.519 18.4525 7.31 18.4525H15.248ZM13.988 15.2465L13.526 14.6795C14.443 14.4205 14.793 13.8465 14.793 13.8465C14.506 14.0355 14.233 14.1685 13.988 14.2595C13.638 14.4065 13.302 14.5045 12.973 14.5605C12.301 14.6865 11.685 14.6515 11.16 14.5535C10.761 14.4765 10.418 14.3645 10.131 14.2525C9.97 14.1895 9.795 14.1125 9.62 14.0145L9.592 13.9985L9.585 13.9955L9.557 13.9795L9.529 13.9585L9.333 13.8395C9.333 13.8395 9.669 14.3995 10.558 14.6655L10.089 15.2465C8.542 15.1975 7.954 14.1825 7.954 14.1825C7.954 11.9285 8.962 10.1015 8.962 10.1015C9.97 9.34549 10.929 9.36649 10.929 9.36649L10.999 9.45049C9.739 9.81449 9.158 10.3675 9.158 10.3675L9.571 10.1645C10.32 9.83549 10.915 9.74449 11.16 9.72349L11.279 9.70949C11.706 9.65349 12.189 9.63949 12.693 9.69549C13.358 9.77249 14.072 9.96849 14.8 10.3675C14.8 10.3675 14.247 9.84249 13.057 9.47849L13.155 9.36649C13.155 9.36649 14.114 9.34549 15.122 10.1015C15.122 10.1015 16.13 11.9285 16.13 14.1825C16.13 14.1825 15.557 15.1595 13.988 15.2465ZM13.288 11.9775C12.889 11.9775 12.574 12.3275 12.574 12.7545C12.574 13.1815 12.896 13.5315 13.288 13.5315C13.687 13.5315 14.002 13.1815 14.002 12.7545C14.002 12.3275 13.687 11.9775 13.288 11.9775ZM10.733 11.9775C10.334 11.9775 10.019 12.3275 10.019 12.7545C10.019 13.1815 10.341 13.5315 10.733 13.5315C11.132 13.5315 11.447 13.1815 11.447 12.7545C11.454 12.3275 11.132 11.9775 10.733 11.9775Z" fill="white"/>
</g>
<defs>
<clipPath id="clip0_239_86">
<rect width="24" height="24" fill="white" transform="translate(0 0.104492)"/>
</clipPath>
</defs>
</svg>
