<svg width="25" height="25" viewBox="0 0 25 25" fill="none" xmlns="http://www.w3.org/2000/svg">
<g clip-path="url(#clip0_239_84)">
<path d="M15.329 6.40649C14.591 6.37249 14.369 6.36649 12.5 6.36649C10.631 6.36649 10.41 6.37349 9.672 6.40649C7.773 6.49349 6.889 7.39249 6.802 9.27649C6.769 10.0145 6.761 10.2355 6.761 12.1045C6.761 13.9735 6.769 14.1945 6.802 14.9335C6.889 16.8125 7.769 17.7165 9.672 17.8035C10.409 17.8365 10.631 17.8445 12.5 17.8445C14.37 17.8445 14.591 17.8375 15.329 17.8035C17.228 17.7175 18.111 16.8155 18.199 14.9335C18.232 14.1955 18.239 13.9735 18.239 12.1045C18.239 10.2355 18.232 10.0145 18.199 9.27649C18.111 7.39349 17.226 6.49349 15.329 6.40649ZM12.5 15.6995C10.515 15.6995 8.905 14.0905 8.905 12.1045C8.905 10.1195 10.515 8.51049 12.5 8.51049C14.485 8.51049 16.095 10.1195 16.095 12.1045C16.095 14.0895 14.485 15.6995 12.5 15.6995ZM16.237 9.20849C15.773 9.20849 15.397 8.83249 15.397 8.36849C15.397 7.90449 15.773 7.52849 16.237 7.52849C16.701 7.52849 17.077 7.90449 17.077 8.36849C17.077 8.83149 16.701 9.20849 16.237 9.20849ZM14.833 12.1045C14.833 13.3935 13.788 14.4375 12.5 14.4375C11.212 14.4375 10.167 13.3935 10.167 12.1045C10.167 10.8155 11.212 9.77149 12.5 9.77149C13.788 9.77149 14.833 10.8155 14.833 12.1045ZM12.5 0.104492C5.873 0.104492 0.5 5.47749 0.5 12.1045C0.5 18.7315 5.873 24.1045 12.5 24.1045C19.127 24.1045 24.5 18.7315 24.5 12.1045C24.5 5.47749 19.127 0.104492 12.5 0.104492ZM19.458 14.9905C19.343 17.5355 17.926 18.9455 15.387 19.0625C14.64 19.0965 14.401 19.1045 12.5 19.1045C10.599 19.1045 10.361 19.0965 9.614 19.0625C7.07 18.9455 5.659 17.5335 5.542 14.9905C5.508 14.2445 5.5 14.0055 5.5 12.1045C5.5 10.2035 5.508 9.96549 5.542 9.21849C5.659 6.67449 7.071 5.26349 9.614 5.14749C10.361 5.11249 10.599 5.10449 12.5 5.10449C14.401 5.10449 14.64 5.11249 15.387 5.14749C17.932 5.26449 19.344 6.67949 19.458 9.21849C19.492 9.96549 19.5 10.2035 19.5 12.1045C19.5 14.0055 19.492 14.2445 19.458 14.9905Z" fill="#FFF4F4"/>
</g>
<defs>
<clipPath id="clip0_239_84">
<rect width="24" height="24" fill="white" transform="translate(0.5 0.104492)"/>
</clipPath>
</defs>
</svg>
