<svg width="24" height="25" viewBox="0 0 24 25" fill="none" xmlns="http://www.w3.org/2000/svg">
<g clip-path="url(#clip0_239_84)">
<path d="M14.829 6.85425C14.091 6.82025 13.869 6.81425 12 6.81425C10.131 6.81425 9.91 6.82125 9.172 6.85425C7.273 6.94125 6.389 7.84025 6.302 9.72425C6.269 10.4622 6.261 10.6832 6.261 12.5522C6.261 14.4212 6.269 14.6422 6.302 15.3812C6.389 17.2602 7.269 18.1642 9.172 18.2512C9.909 18.2842 10.131 18.2922 12 18.2922C13.87 18.2922 14.091 18.2852 14.829 18.2512C16.728 18.1652 17.611 17.2632 17.699 15.3812C17.732 14.6432 17.739 14.4212 17.739 12.5522C17.739 10.6832 17.732 10.4622 17.699 9.72425C17.611 7.84125 16.726 6.94125 14.829 6.85425ZM12 16.1472C10.015 16.1472 8.405 14.5382 8.405 12.5522C8.405 10.5672 10.015 8.95825 12 8.95825C13.985 8.95825 15.595 10.5672 15.595 12.5522C15.595 14.5372 13.985 16.1472 12 16.1472ZM15.737 9.65625C15.273 9.65625 14.897 9.28025 14.897 8.81625C14.897 8.35225 15.273 7.97625 15.737 7.97625C16.201 7.97625 16.577 8.35225 16.577 8.81625C16.577 9.27925 16.201 9.65625 15.737 9.65625ZM14.333 12.5522C14.333 13.8412 13.288 14.8852 12 14.8852C10.712 14.8852 9.667 13.8412 9.667 12.5522C9.667 11.2632 10.712 10.2192 12 10.2192C13.288 10.2192 14.333 11.2632 14.333 12.5522ZM12 0.552246C5.373 0.552246 0 5.92525 0 12.5522C0 19.1792 5.373 24.5522 12 24.5522C18.627 24.5522 24 19.1792 24 12.5522C24 5.92525 18.627 0.552246 12 0.552246ZM18.958 15.4382C18.843 17.9832 17.426 19.3932 14.887 19.5102C14.14 19.5442 13.901 19.5522 12 19.5522C10.099 19.5522 9.861 19.5442 9.114 19.5102C6.57 19.3932 5.159 17.9812 5.042 15.4382C5.008 14.6922 5 14.4532 5 12.5522C5 10.6512 5.008 10.4132 5.042 9.66625C5.159 7.12225 6.571 5.71125 9.114 5.59525C9.861 5.56025 10.099 5.55225 12 5.55225C13.901 5.55225 14.14 5.56025 14.887 5.59525C17.432 5.71225 18.844 7.12725 18.958 9.66625C18.992 10.4132 19 10.6512 19 12.5522C19 14.4532 18.992 14.6922 18.958 15.4382Z" fill="#FFF4F4"/>
</g>
<defs>
<clipPath id="clip0_239_84">
<rect width="24" height="24" fill="white" transform="translate(0 0.552246)"/>
</clipPath>
</defs>
</svg>
