<svg xmlns="http://www.w3.org/2000/svg" xmlns:xlink="http://www.w3.org/1999/xlink" width="500" zoomAndPan="magnify" viewBox="0 0 375 374.999991" height="500" preserveAspectRatio="xMidYMid meet" version="1.0"><defs><g/><clipPath id="78e384badb"><path d="M 52.546875 52.546875 L 322.453125 52.546875 L 322.453125 322.453125 L 52.546875 322.453125 Z M 52.546875 52.546875 " clip-rule="nonzero"/></clipPath><clipPath id="0b988c78d0"><path d="M 187.5 52.546875 C 112.96875 52.546875 52.546875 112.96875 52.546875 187.5 C 52.546875 262.03125 112.96875 322.453125 187.5 322.453125 C 262.03125 322.453125 322.453125 262.03125 322.453125 187.5 C 322.453125 112.96875 262.03125 52.546875 187.5 52.546875 Z M 187.5 52.546875 " clip-rule="nonzero"/></clipPath></defs><g clip-path="url(#78e384badb)"><g clip-path="url(#0b988c78d0)"><path fill="#000000" d="M 52.546875 52.546875 L 322.453125 52.546875 L 322.453125 322.453125 L 52.546875 322.453125 Z M 52.546875 52.546875 " fill-opacity="1" fill-rule="nonzero"/></g></g><g fill="#ffffff" fill-opacity="1"><g transform="translate(155.498433, 211.874986)"><g><path d="M 38.46875 -37.3125 L 51.453125 -37.3125 C 50.171875 -28.921875 48.125 -21.890625 45.0625 -16.125 C 41.921875 -22.078125 39.6875 -29.0625 38.203125 -36.671875 Z M 60.609375 -37.3125 L 60.609375 -41.796875 L 39.9375 -41.796875 C 41.09375 -45.25 41.984375 -48.890625 42.75 -52.671875 L 38.140625 -53.5625 C 36.03125 -43.078125 32.578125 -32.953125 27.578125 -26.375 L 27.578125 -49.03125 L 5.1875 -49.03125 L 5.1875 -44.359375 L 22.90625 -44.359375 L 22.90625 -30.84375 L 5.953125 -30.84375 L 5.953125 -6.59375 C 5.953125 -4.359375 4.921875 -3.453125 3.96875 -3.015625 C 4.734375 -1.859375 5.5625 0.453125 5.890625 1.859375 C 7.296875 0.578125 9.65625 -0.515625 28.15625 -7.609375 C 27.84375 -8.703125 27.515625 -10.6875 27.515625 -12.09375 L 10.6875 -6.015625 L 10.6875 -26.171875 L 27.453125 -26.171875 L 27.140625 -25.796875 C 28.21875 -25.03125 30.015625 -23.234375 30.78125 -22.34375 C 32.390625 -24.640625 33.984375 -27.203125 35.390625 -30.015625 C 37.125 -23.171875 39.296875 -16.953125 42.234375 -11.640625 C 38.46875 -6.265625 33.34375 -2.234375 26.625 0.828125 C 27.515625 1.859375 28.984375 4.03125 29.4375 5.1875 C 35.96875 1.984375 41.09375 -2.109375 44.984375 -7.234375 C 48.578125 -2.171875 52.984375 1.859375 58.375 4.609375 C 59.140625 3.390625 60.484375 1.53125 61.625 0.640625 C 56 -1.921875 51.453125 -6.078125 47.9375 -11.390625 C 52.03125 -18.296875 54.71875 -26.8125 56.453125 -37.3125 Z M 60.609375 -37.3125 "/></g></g></g>
</svg>