<svg width="405" height="555" viewBox="0 0 405 555" fill="none" xmlns="http://www.w3.org/2000/svg">
<path d="M363.889 196.474L361.321 195.539L387.061 124.818C389.018 119.443 389.902 113.737 389.663 108.026C389.424 102.315 388.068 96.7114 385.67 91.5345C383.273 86.3575 379.882 81.7088 375.691 77.8538C371.499 73.9988 366.59 71.0131 361.243 69.0669L212.2 14.8195C206.853 12.8733 201.173 12.005 195.484 12.264C189.796 12.523 184.21 13.9043 179.045 16.3291C173.881 18.7538 169.24 22.1745 165.386 26.3958C161.532 30.6171 158.542 35.5563 156.586 40.9315L15.3712 428.915C11.42 439.77 11.9204 451.743 16.7622 462.198C21.6041 472.654 30.3908 480.735 41.1893 484.666L190.233 538.913C201.032 542.844 212.957 542.301 223.387 537.404C233.817 532.507 241.896 523.657 245.847 512.801L342.998 245.88L345.566 246.815L363.889 196.474Z" fill="#3F3D56"/>
<path d="M359.01 80.3139L339.555 73.2328C339.647 75.7635 339.118 78.2803 338.014 80.5614C336.91 82.8424 335.265 84.8178 333.225 86.3134C331.184 87.8091 328.81 88.7791 326.311 89.1381C323.813 89.497 321.267 89.2339 318.898 88.3719L233.513 57.2942C231.144 56.4318 229.025 54.997 227.342 53.1161C225.659 51.2353 224.464 48.9662 223.862 46.5086C223.26 44.0511 223.27 41.4806 223.89 39.0236C224.511 36.5665 225.723 34.2984 227.42 32.4189L209.249 25.8051C201.185 22.87 192.279 23.2755 184.49 26.9325C176.701 30.5895 170.668 37.1985 167.717 45.3054L26.7101 432.719C25.249 436.733 24.5888 440.995 24.767 445.259C24.9453 449.524 25.9585 453.709 27.7489 457.575C29.5393 461.441 32.0717 464.913 35.2017 467.792C38.3316 470.67 41.9977 472.9 45.9907 474.354L195.752 528.862C199.745 530.316 203.987 530.964 208.235 530.771C212.483 530.577 216.655 529.546 220.511 527.735C224.368 525.924 227.834 523.37 230.712 520.217C233.59 517.065 235.823 513.376 237.284 509.362L378.291 121.948C379.752 117.934 380.412 113.673 380.234 109.408C380.056 105.143 379.043 100.958 377.252 97.0923C375.462 93.2262 372.93 89.7547 369.8 86.8758C366.67 83.997 363.004 81.7672 359.01 80.3139Z" fill="white"/>
<path d="M184.916 150.86L153.184 139.31C152.616 139.102 152.154 138.677 151.899 138.126C151.644 137.576 151.617 136.946 151.824 136.374L163.435 104.474C163.644 103.902 164.069 103.437 164.618 103.179C165.167 102.921 165.795 102.892 166.364 103.099L198.096 114.648C198.664 114.856 199.127 115.282 199.382 115.832C199.636 116.382 199.663 117.012 199.456 117.584L187.845 149.485C187.636 150.056 187.211 150.521 186.662 150.779C186.113 151.037 185.485 151.066 184.916 150.86Z" fill="#FF6584"/>
<path d="M232.945 168.34L201.212 156.791C200.644 156.583 200.182 156.157 199.927 155.607C199.672 155.057 199.645 154.427 199.853 153.855L211.464 121.954C211.672 121.383 212.098 120.918 212.647 120.66C213.196 120.402 213.823 120.373 214.392 120.579L246.125 132.129C246.693 132.337 247.155 132.762 247.41 133.313C247.665 133.863 247.691 134.493 247.484 135.065L235.873 166.965C235.665 167.537 235.239 168.002 234.69 168.26C234.141 168.518 233.513 168.547 232.945 168.34Z" fill="#E5E5E5"/>
<path d="M280.971 185.821L249.239 174.271C248.67 174.064 248.208 173.638 247.953 173.088C247.698 172.537 247.672 171.907 247.879 171.335L259.49 139.435C259.699 138.864 260.124 138.398 260.673 138.14C261.222 137.883 261.85 137.854 262.418 138.06L294.151 149.609C294.719 149.817 295.181 150.243 295.436 150.793C295.691 151.343 295.718 151.974 295.511 152.545L283.9 184.446C283.691 185.017 283.266 185.483 282.717 185.74C282.167 185.998 281.54 186.027 280.971 185.821Z" fill="#E5E5E5"/>
<path d="M328.999 203.301L297.267 191.752C296.699 191.544 296.237 191.119 295.982 190.568C295.727 190.018 295.7 189.388 295.907 188.816L307.518 156.915C307.727 156.344 308.152 155.879 308.701 155.621C309.25 155.363 309.878 155.334 310.447 155.54L342.179 167.09C342.747 167.298 343.21 167.723 343.465 168.274C343.719 168.824 343.746 169.454 343.539 170.026L331.928 201.926C331.719 202.498 331.294 202.963 330.745 203.221C330.196 203.479 329.568 203.508 328.999 203.301Z" fill="#E5E5E5"/>
<path d="M163.307 209.877L131.575 198.328C131.006 198.12 130.544 197.694 130.289 197.144C130.034 196.594 130.008 195.964 130.215 195.392L141.826 163.491C142.034 162.92 142.46 162.455 143.009 162.197C143.558 161.939 144.186 161.91 144.754 162.116L176.487 173.666C177.055 173.874 177.517 174.299 177.772 174.85C178.027 175.4 178.054 176.03 177.846 176.602L166.236 208.502C166.027 209.074 165.601 209.539 165.052 209.797C164.503 210.055 163.876 210.084 163.307 209.877Z" fill="#E5E5E5"/>
<path d="M211.334 227.358L179.602 215.808C179.034 215.601 178.571 215.175 178.317 214.625C178.062 214.074 178.035 213.444 178.242 212.872L189.853 180.972C190.062 180.401 190.487 179.935 191.036 179.677C191.585 179.42 192.213 179.391 192.782 179.597L224.514 191.147C225.082 191.354 225.545 191.78 225.8 192.33C226.054 192.881 226.081 193.511 225.874 194.082L214.263 225.983C214.054 226.554 213.629 227.02 213.08 227.277C212.531 227.535 211.903 227.564 211.334 227.358Z" fill="#E5E5E5"/>
<path d="M259.362 244.838L227.629 233.289C227.061 233.081 226.599 232.656 226.344 232.105C226.089 231.555 226.062 230.925 226.27 230.353L237.881 198.452C238.089 197.881 238.515 197.416 239.064 197.158C239.613 196.9 240.24 196.871 240.809 197.077L272.542 208.627C273.11 208.835 273.572 209.26 273.827 209.811C274.082 210.361 274.108 210.991 273.901 211.563L262.29 243.463C262.082 244.035 261.656 244.5 261.107 244.758C260.558 245.016 259.93 245.045 259.362 244.838Z" fill="#FF6584"/>
<path d="M307.389 262.319L275.657 250.769C275.088 250.562 274.626 250.136 274.371 249.586C274.116 249.035 274.09 248.405 274.297 247.834L285.908 215.933C286.117 215.362 286.542 214.896 287.091 214.638C287.64 214.381 288.268 214.352 288.836 214.558L320.569 226.108C321.137 226.315 321.599 226.741 321.854 227.291C322.109 227.842 322.136 228.472 321.929 229.043L310.318 260.944C310.109 261.515 309.684 261.981 309.135 262.239C308.585 262.496 307.958 262.525 307.389 262.319Z" fill="#FF6584"/>
<path d="M141.698 268.895L109.965 257.345C109.397 257.138 108.935 256.712 108.68 256.162C108.425 255.611 108.398 254.981 108.606 254.41L120.216 222.509C120.425 221.938 120.851 221.472 121.4 221.215C121.949 220.957 122.576 220.928 123.145 221.134L154.878 232.684C155.446 232.891 155.908 233.317 156.163 233.867C156.418 234.418 156.444 235.048 156.237 235.62L144.626 267.52C144.418 268.091 143.992 268.557 143.443 268.815C142.894 269.072 142.266 269.101 141.698 268.895Z" fill="#E5E5E5"/>
<path d="M189.725 286.376L157.993 274.826C157.424 274.618 156.962 274.193 156.707 273.642C156.452 273.092 156.426 272.462 156.633 271.89L168.244 239.99C168.452 239.418 168.878 238.953 169.427 238.695C169.976 238.437 170.604 238.408 171.172 238.615L202.905 250.164C203.473 250.372 203.935 250.798 204.19 251.348C204.445 251.898 204.472 252.528 204.264 253.1L192.654 285.001C192.445 285.572 192.019 286.037 191.47 286.295C190.921 286.553 190.294 286.582 189.725 286.376Z" fill="#E5E5E5"/>
<path d="M237.753 303.856L206.021 292.307C205.453 292.099 204.99 291.673 204.736 291.123C204.481 290.573 204.454 289.942 204.661 289.371L216.272 257.47C216.481 256.899 216.906 256.433 217.455 256.176C218.004 255.918 218.632 255.889 219.201 256.095L250.933 267.645C251.501 267.852 251.964 268.278 252.218 268.828C252.473 269.379 252.5 270.009 252.293 270.581L240.682 302.481C240.473 303.052 240.048 303.518 239.499 303.776C238.95 304.034 238.322 304.062 237.753 303.856Z" fill="#E5E5E5"/>
<path d="M285.78 321.337L254.047 309.787C253.479 309.58 253.017 309.154 252.762 308.604C252.507 308.053 252.48 307.423 252.688 306.851L264.298 274.951C264.507 274.38 264.933 273.914 265.482 273.656C266.031 273.399 266.658 273.37 267.227 273.576L298.96 285.125C299.528 285.333 299.99 285.759 300.245 286.309C300.5 286.859 300.526 287.49 300.319 288.061L288.708 319.962C288.5 320.533 288.074 320.999 287.525 321.256C286.976 321.514 286.348 321.543 285.78 321.337Z" fill="#E5E5E5"/>
<path d="M120.088 327.913L88.3558 316.363C87.7876 316.156 87.3254 315.73 87.0705 315.179C86.8156 314.629 86.7889 313.999 86.9963 313.427L98.6071 281.527C98.8157 280.956 99.2413 280.49 99.7903 280.232C100.339 279.974 100.967 279.945 101.536 280.152L133.268 291.701C133.836 291.909 134.299 292.335 134.553 292.885C134.808 293.435 134.835 294.066 134.628 294.637L123.017 326.538C122.808 327.109 122.383 327.574 121.834 327.832C121.285 328.09 120.657 328.119 120.088 327.913Z" fill="#E5E5E5"/>
<path d="M168.116 345.393L136.383 333.844C135.815 333.636 135.353 333.21 135.098 332.66C134.843 332.11 134.816 331.48 135.024 330.908L146.634 299.007C146.843 298.436 147.269 297.971 147.818 297.713C148.367 297.455 148.994 297.426 149.563 297.632L181.296 309.182C181.864 309.39 182.326 309.815 182.581 310.366C182.836 310.916 182.862 311.546 182.655 312.118L171.044 344.018C170.836 344.589 170.41 345.055 169.861 345.313C169.312 345.571 168.684 345.6 168.116 345.393Z" fill="#E5E5E5"/>
<path d="M216.143 362.874L184.411 351.324C183.842 351.117 183.38 350.691 183.125 350.141C182.87 349.59 182.844 348.96 183.051 348.388L194.662 316.488C194.87 315.917 195.296 315.451 195.845 315.193C196.394 314.936 197.022 314.907 197.59 315.113L229.323 326.662C229.891 326.87 230.353 327.296 230.608 327.846C230.863 328.396 230.89 329.027 230.682 329.598L219.072 361.499C218.863 362.07 218.437 362.536 217.888 362.793C217.339 363.051 216.712 363.08 216.143 362.874Z" fill="#E5E5E5"/>
<path d="M264.171 380.355L232.439 368.805C231.871 368.597 231.408 368.172 231.154 367.621C230.899 367.071 230.872 366.441 231.079 365.869L242.69 333.969C242.899 333.397 243.324 332.932 243.873 332.674C244.422 332.416 245.05 332.387 245.619 332.593L277.351 344.143C277.919 344.351 278.382 344.776 278.637 345.327C278.891 345.877 278.918 346.507 278.711 347.079L267.1 378.98C266.891 379.551 266.466 380.016 265.917 380.274C265.368 380.532 264.74 380.561 264.171 380.355Z" fill="#E5E5E5"/>
<path d="M72.4164 459.949L40.684 448.4C40.1158 448.192 39.6535 447.766 39.3986 447.216C39.1438 446.666 39.1171 446.036 39.3244 445.464L50.9352 413.563C51.1439 412.992 51.5694 412.527 52.1184 412.269C52.6674 412.011 53.2951 411.982 53.8638 412.188L85.5963 423.738C86.1645 423.946 86.6267 424.371 86.8816 424.922C87.1365 425.472 87.1632 426.102 86.9559 426.674L75.345 458.574C75.1364 459.146 74.7109 459.611 74.1619 459.869C73.6128 460.127 72.9851 460.156 72.4164 459.949Z" fill="white"/>
<path d="M120.445 477.43L88.7122 465.88C88.144 465.673 87.6818 465.247 87.4269 464.697C87.1721 464.146 87.1454 463.516 87.3527 462.945L98.9635 431.044C99.1722 430.473 99.5977 430.007 100.147 429.75C100.696 429.492 101.323 429.463 101.892 429.669L133.625 441.219C134.193 441.426 134.655 441.852 134.91 442.402C135.165 442.953 135.191 443.583 134.984 444.155L123.373 476.055C123.165 476.626 122.739 477.092 122.19 477.35C121.641 477.607 121.013 477.636 120.445 477.43Z" fill="white"/>
<path d="M168.472 494.911L136.74 483.361C136.171 483.153 135.709 482.728 135.454 482.177C135.199 481.627 135.173 480.997 135.38 480.425L146.991 448.525C147.2 447.953 147.625 447.488 148.174 447.23C148.723 446.972 149.351 446.943 149.919 447.15L181.652 458.699C182.22 458.907 182.682 459.332 182.937 459.883C183.192 460.433 183.219 461.063 183.011 461.635L171.401 493.536C171.192 494.107 170.767 494.572 170.217 494.83C169.668 495.088 169.041 495.117 168.472 494.911Z" fill="white"/>
<path d="M216.499 512.391L184.767 500.842C184.199 500.634 183.737 500.208 183.482 499.658C183.227 499.107 183.2 498.477 183.407 497.906L195.018 466.005C195.227 465.434 195.652 464.968 196.201 464.711C196.75 464.453 197.378 464.424 197.947 464.63L229.679 476.18C230.247 476.387 230.71 476.813 230.965 477.363C231.219 477.914 231.246 478.544 231.039 479.116L219.428 511.016C219.219 511.587 218.794 512.053 218.245 512.311C217.696 512.568 217.068 512.597 216.499 512.391Z" fill="white"/>
<path d="M137.517 407.486C139.886 408.348 142.508 407.116 143.375 404.736C144.241 402.355 143.024 399.726 140.655 398.864C138.287 398.002 135.665 399.233 134.798 401.614C133.932 403.995 135.149 406.624 137.517 407.486Z" fill="#E5E5E5"/>
<path d="M152.955 413.105C155.323 413.967 157.945 412.735 158.812 410.354C159.679 407.974 158.461 405.345 156.093 404.483C153.725 403.621 151.102 404.852 150.236 407.233C149.369 409.614 150.586 412.243 152.955 413.105Z" fill="#E5E5E5"/>
<path d="M168.392 418.723C170.761 419.585 173.383 418.354 174.25 415.973C175.116 413.592 173.899 410.964 171.53 410.102C169.162 409.24 166.54 410.471 165.673 412.852C164.807 415.232 166.024 417.861 168.392 418.723Z" fill="#E5E5E5"/>
</svg>
