<svg width="36" height="36" viewBox="0 0 36 36" fill="none" xmlns="http://www.w3.org/2000/svg">
<path d="M17.997 7.5C11.88 7.5 6.384 12.1395 3.2175 17.2245C3.0735 17.463 3 17.7315 3 18C3 18.2685 3.072 18.537 3.216 18.7755C6.384 23.8605 11.88 28.5 17.997 28.5C24.2115 28.5 29.691 23.865 32.793 18.7605C32.931 18.5265 33 18.2625 33 18C33 17.7375 32.931 17.4735 32.793 17.2395C29.691 12.135 24.2115 7.5 17.997 7.5ZM18 12C21.312 12 24 14.688 24 18C24 21.312 21.312 24 18 24C14.688 24 12 21.312 12 18C12 14.688 14.688 12 18 12ZM18 14.25C20.07 14.25 21.75 15.93 21.75 18C21.75 20.07 20.07 21.75 18 21.75C15.93 21.75 14.25 20.07 14.25 18C14.25 15.93 15.93 14.25 18 14.25Z" fill="white"/>
</svg>
