<svg width="28" height="27" viewBox="0 0 28 27" fill="none" xmlns="http://www.w3.org/2000/svg">
<path d="M14.0052 6.16045C9.53454 6.16045 5.51771 9.5513 3.20343 13.2677C3.09818 13.4421 3.04446 13.6383 3.04446 13.8345C3.04446 14.0308 3.09709 14.227 3.20233 14.4013C5.51771 18.1178 9.53454 21.5086 14.0052 21.5086C18.5472 21.5086 22.552 18.121 24.8191 14.3904C24.92 14.2193 24.9704 14.0264 24.9704 13.8345C24.9704 13.6427 24.92 13.4497 24.8191 13.2787C22.552 9.54801 18.5472 6.16045 14.0052 6.16045ZM14.0074 9.44934C16.428 9.44934 18.3926 11.4139 18.3926 13.8345C18.3926 16.2551 16.428 18.2197 14.0074 18.2197C11.5868 18.2197 9.62224 16.2551 9.62224 13.8345C9.62224 11.4139 11.5868 9.44934 14.0074 9.44934ZM14.0074 11.0938C15.5203 11.0938 16.7482 12.3216 16.7482 13.8345C16.7482 15.3474 15.5203 16.5753 14.0074 16.5753C12.4945 16.5753 11.2667 15.3474 11.2667 13.8345C11.2667 12.3216 12.4945 11.0938 14.0074 11.0938Z" fill="white"/>
</svg>
