<svg width="28" height="27" viewBox="0 0 28 27" fill="none" xmlns="http://www.w3.org/2000/svg">
<g clip-path="url(#clip0_234_1565)">
<path d="M16.7159 1.78231H24.4545C24.6597 1.78231 24.8565 1.86384 25.0017 2.00896C25.1468 2.15409 25.2283 2.35092 25.2283 2.55616V10.2947C25.2283 10.5 25.1468 10.6968 25.0017 10.8419C24.8565 10.987 24.6597 11.0686 24.4545 11.0686H16.7159C16.5107 11.0686 16.3138 10.987 16.1687 10.8419C16.0236 10.6968 15.942 10.5 15.942 10.2947V2.55616C15.942 2.35092 16.0236 2.15409 16.1687 2.00896C16.3138 1.86384 16.5107 1.78231 16.7159 1.78231ZM2.39955 16.8725H10.1381C10.3434 16.8725 10.5402 16.954 10.6853 17.0992C10.8304 17.2443 10.912 17.4411 10.912 17.6464V25.3849C10.912 25.5902 10.8304 25.787 10.6853 25.9321C10.5402 26.0772 10.3434 26.1588 10.1381 26.1588H2.39955C2.19431 26.1588 1.99748 26.0772 1.85235 25.9321C1.70722 25.787 1.62569 25.5902 1.62569 25.3849V17.6464C1.62569 17.4411 1.70722 17.2443 1.85235 17.0992C1.99748 16.954 2.19431 16.8725 2.39955 16.8725ZM21.6407 15.7086L27.0577 24.9949C27.3583 25.5111 26.9865 26.1588 26.3891 26.1588H15.5551C14.9577 26.1588 14.5858 25.5111 14.8865 24.9949L20.3035 15.7086C20.6022 15.1967 21.342 15.1967 21.6407 15.7086ZM6.65576 0.621521C9.86107 0.621521 12.4597 3.22013 12.4597 6.42544C12.4597 9.63076 9.86107 12.2294 6.65576 12.2294C3.45045 12.2294 0.851837 9.63076 0.851837 6.42544C0.851837 3.22013 3.45045 0.621521 6.65576 0.621521Z" fill="white"/>
</g>
<defs>
<clipPath id="clip0_234_1565">
<rect width="26.3111" height="26.3111" fill="white" transform="translate(0.851868 0.234558)"/>
</clipPath>
</defs>
</svg>
