<svg width="36" height="36" viewBox="0 0 36 36" fill="none" xmlns="http://www.w3.org/2000/svg">
<g clip-path="url(#clip0_231_1007)">
<path d="M21.7059 2.11765H32.2941C32.5749 2.11765 32.8442 2.22921 33.0428 2.42778C33.2414 2.62634 33.3529 2.89566 33.3529 3.17648V13.7647C33.3529 14.0455 33.2414 14.3148 33.0428 14.5134C32.8442 14.712 32.5749 14.8235 32.2941 14.8235H21.7059C21.4251 14.8235 21.1557 14.712 20.9572 14.5134C20.7586 14.3148 20.6471 14.0455 20.6471 13.7647V3.17648C20.6471 2.89566 20.7586 2.62634 20.9572 2.42778C21.1557 2.22921 21.4251 2.11765 21.7059 2.11765ZM2.11765 22.7647H12.7059C12.9867 22.7647 13.256 22.8763 13.4546 23.0748C13.6532 23.2734 13.7647 23.5427 13.7647 23.8235V34.4118C13.7647 34.6926 13.6532 34.9619 13.4546 35.1605C13.256 35.359 12.9867 35.4706 12.7059 35.4706H2.11765C1.83683 35.4706 1.56751 35.359 1.36895 35.1605C1.17038 34.9619 1.05882 34.6926 1.05882 34.4118V23.8235C1.05882 23.5427 1.17038 23.2734 1.36895 23.0748C1.56751 22.8763 1.83683 22.7647 2.11765 22.7647ZM28.4442 21.1722L35.856 33.8781C36.2673 34.5844 35.7586 35.4706 34.9412 35.4706H20.1176C19.3002 35.4706 18.7915 34.5844 19.2028 33.8781L26.6146 21.1722C27.0233 20.4718 28.0355 20.4718 28.4442 21.1722ZM7.94118 0.529419C12.3268 0.529419 15.8824 4.08495 15.8824 8.4706C15.8824 12.8562 12.3268 16.4118 7.94118 16.4118C3.55553 16.4118 0 12.8562 0 8.4706C0 4.08495 3.55553 0.529419 7.94118 0.529419Z" fill="white"/>
</g>
<defs>
<clipPath id="clip0_231_1007">
<rect width="36" height="36" fill="white"/>
</clipPath>
</defs>
</svg>
