<svg width="24" height="25" viewBox="0 0 24 25" fill="none" xmlns="http://www.w3.org/2000/svg">
<g clip-path="url(#clip0_239_88)">
<path d="M12 0.552246C5.373 0.552246 0 5.92525 0 12.5522C0 19.1792 5.373 24.5522 12 24.5522C18.627 24.5522 24 19.1792 24 12.5522C24 5.92525 18.627 0.552246 12 0.552246ZM16.441 17.4442C14.339 17.5882 9.657 17.5882 7.558 17.4442C5.282 17.2882 5.017 16.1742 5 12.5522C5.017 8.92325 5.285 7.81625 7.558 7.66025C9.657 7.51625 14.34 7.51625 16.441 7.66025C18.718 7.81625 18.982 8.93025 19 12.5522C18.982 16.1812 18.715 17.2882 16.441 17.4442ZM10 10.2102L14.917 12.5482L10 14.8942V10.2102Z" fill="#FFFAFA"/>
</g>
<defs>
<clipPath id="clip0_239_88">
<rect width="24" height="24" fill="white" transform="translate(0 0.552246)"/>
</clipPath>
</defs>
</svg>
