<svg width="25" height="25" viewBox="0 0 25 25" fill="none" xmlns="http://www.w3.org/2000/svg">
<g clip-path="url(#clip0_239_88)">
<path d="M12.5 0.104492C5.873 0.104492 0.5 5.47749 0.5 12.1045C0.5 18.7315 5.873 24.1045 12.5 24.1045C19.127 24.1045 24.5 18.7315 24.5 12.1045C24.5 5.47749 19.127 0.104492 12.5 0.104492ZM16.941 16.9965C14.839 17.1405 10.157 17.1405 8.058 16.9965C5.782 16.8405 5.517 15.7265 5.5 12.1045C5.517 8.47549 5.785 7.36849 8.058 7.21249C10.157 7.06849 14.84 7.06849 16.941 7.21249C19.218 7.36849 19.482 8.48249 19.5 12.1045C19.482 15.7335 19.215 16.8405 16.941 16.9965ZM10.5 9.76249L15.417 12.1005L10.5 14.4465V9.76249Z" fill="#FFFAFA"/>
</g>
<defs>
<clipPath id="clip0_239_88">
<rect width="24" height="24" fill="white" transform="translate(0.5 0.104492)"/>
</clipPath>
</defs>
</svg>
