<svg width="405" height="555" viewBox="0 0 405 555" fill="none" xmlns="http://www.w3.org/2000/svg">
<path d="M363.888 196.473L361.321 195.539L387.06 124.819C391.012 113.963 390.511 101.99 385.67 91.5347C380.828 81.0792 372.041 72.9973 361.242 69.0669L212.199 14.8195C206.852 12.8734 201.172 12.0051 195.483 12.2641C189.795 12.5232 184.209 13.9045 179.045 16.3293C173.88 18.7542 169.239 22.1749 165.385 26.3963C161.531 30.6177 158.541 35.5571 156.584 40.9324L15.3708 428.914C11.4195 439.77 11.9199 451.742 16.7617 462.198C21.6035 472.653 30.3902 480.735 41.1888 484.666L190.232 538.913C201.031 542.843 212.957 542.3 223.386 537.403C233.816 532.506 241.895 523.656 245.846 512.8L342.998 245.878L345.565 246.813L363.888 196.473Z" fill="#3F3D56"/>
<path d="M359.011 80.3101L339.557 73.2295C339.649 75.7604 339.12 78.2774 338.016 80.5585C336.912 82.8397 335.267 84.8151 333.226 86.3108C331.185 87.8064 328.81 88.7763 326.312 89.1351C323.814 89.4939 321.268 89.2305 318.899 88.3681L233.513 57.2904C231.145 56.4281 229.025 54.9933 227.342 53.1125C225.659 51.2317 224.464 48.9625 223.862 46.505C223.26 44.0474 223.27 41.4769 223.89 39.0198C224.511 36.5627 225.723 34.2945 227.42 32.415L209.249 25.8014C201.185 22.8662 192.279 23.2718 184.49 26.9289C176.701 30.586 170.668 37.1951 167.717 45.3022L26.7084 432.72C23.7577 440.828 24.1313 449.769 27.7471 457.577C31.363 465.385 37.9248 471.42 45.9891 474.355L195.75 528.864C203.815 531.799 212.721 531.394 220.51 527.736C228.299 524.079 234.332 517.47 237.283 509.363L378.292 121.944C381.242 113.837 380.868 104.896 377.253 97.0885C373.637 89.2805 367.075 83.2452 359.011 80.3101Z" fill="white"/>
<path d="M205.939 126.934C205.125 126.646 204.381 126.188 203.755 125.592C203.13 124.995 202.637 124.273 202.308 123.472C201.934 122.479 201.768 121.419 201.821 120.358C201.874 119.297 202.145 118.257 202.617 117.305C203.46 115.47 204.897 113.975 206.693 113.063C207.56 112.615 208.508 112.348 209.48 112.28C210.452 112.212 211.426 112.344 212.344 112.667C213.196 112.973 213.973 113.456 214.626 114.084C215.278 114.712 215.792 115.471 216.132 116.312C216.512 117.284 216.687 118.325 216.646 119.369C216.605 120.413 216.349 121.438 215.894 122.38C215.043 124.342 213.495 125.917 211.552 126.797C209.764 127.56 207.756 127.609 205.939 126.934ZM211.455 115.11C209.077 114.245 206.224 115.69 204.96 118.4C204.64 119.026 204.452 119.71 204.408 120.411C204.363 121.112 204.463 121.814 204.701 122.474C204.891 122.943 205.18 123.366 205.547 123.714C205.914 124.062 206.351 124.327 206.828 124.491C209.052 125.3 211.993 124.623 213.551 121.284C213.854 120.67 214.027 119.999 214.06 119.315C214.092 118.631 213.983 117.948 213.74 117.31C213.534 116.802 213.225 116.344 212.831 115.965C212.438 115.586 211.969 115.295 211.455 115.11Z" fill="#3F3D56"/>
<path d="M203.351 134.29C201.46 133.637 199.731 132.587 198.278 131.21C196.825 129.833 195.681 128.16 194.922 126.303C194.163 124.446 193.807 122.447 193.877 120.438C193.947 118.429 194.442 116.457 195.328 114.652C197.161 110.854 200.317 107.858 204.196 106.233C208.075 104.608 212.409 104.467 216.375 105.836C220.749 107.428 223.834 110.15 225.296 113.709C226.682 117.084 226.464 121.045 224.683 124.864C222.996 128.481 220.711 129.853 219.091 130.367C218.366 130.621 217.597 130.725 216.832 130.673C216.066 130.62 215.32 130.412 214.638 130.061C212.768 128.977 211.221 126.345 213.015 122.498L216.333 115.385C216.48 115.075 216.743 114.835 217.065 114.718C217.387 114.601 217.741 114.616 218.051 114.761C218.36 114.906 218.6 115.168 218.717 115.49C218.834 115.812 218.819 116.168 218.675 116.481L215.357 123.593C214.465 125.506 214.682 127.082 215.937 127.81C216.688 128.152 217.545 128.181 218.319 127.89C219.443 127.533 221.053 126.529 222.341 123.768C223.831 120.573 224.026 117.44 222.903 114.707C221.725 111.839 219.16 109.616 215.486 108.278C212.128 107.128 208.462 107.252 205.181 108.628C201.899 110.004 199.228 112.535 197.671 115.746C196.937 117.224 196.525 118.842 196.464 120.49C196.402 122.139 196.692 123.78 197.314 125.305C197.936 126.83 198.876 128.202 200.07 129.33C201.265 130.459 202.686 131.317 204.24 131.848C206.105 132.644 208.132 132.989 210.157 132.856C210.499 132.84 210.833 132.961 211.086 133.192C211.338 133.423 211.489 133.745 211.505 134.088C211.521 134.431 211.401 134.767 211.171 135.022C210.942 135.278 210.621 135.432 210.279 135.45C207.91 135.601 205.54 135.204 203.351 134.29Z" fill="#3F3D56"/>
<path d="M126.984 304.195C126.744 304.107 126.535 303.95 126.384 303.743C126.233 303.536 126.147 303.289 126.136 303.032C126.126 302.776 126.191 302.521 126.324 302.301C126.457 302.082 126.652 301.906 126.884 301.797L137.67 296.733C137.981 296.589 138.335 296.575 138.655 296.693C138.976 296.811 139.236 297.051 139.38 297.362C139.524 297.672 139.539 298.028 139.423 298.351C139.307 298.673 139.068 298.937 138.76 299.085L127.974 304.15C127.82 304.222 127.653 304.263 127.483 304.271C127.313 304.279 127.144 304.253 126.984 304.195ZM148.141 308.437C147.901 308.35 147.692 308.193 147.541 307.986C147.39 307.779 147.304 307.531 147.293 307.275C147.282 307.018 147.348 306.764 147.481 306.544C147.614 306.324 147.809 306.149 148.041 306.04L157.168 301.754C157.478 301.611 157.832 301.597 158.153 301.715C158.473 301.833 158.733 302.073 158.877 302.384C159.021 302.694 159.036 303.05 158.92 303.372C158.804 303.695 158.566 303.959 158.257 304.107L149.13 308.392C148.976 308.465 148.81 308.506 148.64 308.514C148.47 308.522 148.301 308.496 148.141 308.437ZM144.496 307.111C144.337 307.053 144.19 306.964 144.065 306.849C143.94 306.734 143.839 306.595 143.768 306.44L140.686 299.786C140.613 299.632 140.572 299.464 140.564 299.293C140.556 299.122 140.581 298.951 140.639 298.789C140.697 298.628 140.787 298.48 140.902 298.353C141.017 298.226 141.156 298.124 141.311 298.051C141.466 297.978 141.633 297.937 141.804 297.929C141.974 297.922 142.145 297.948 142.305 298.007C142.465 298.066 142.611 298.156 142.736 298.273C142.861 298.389 142.962 298.529 143.033 298.685L146.114 305.339C146.222 305.571 146.259 305.831 146.219 306.085C146.18 306.339 146.066 306.576 145.893 306.765C145.72 306.955 145.495 307.089 145.246 307.151C144.998 307.212 144.737 307.198 144.496 307.111Z" fill="#3F3D56"/>
<path d="M159.09 304.815C158.489 304.597 157.967 304.204 157.59 303.686C157.213 303.169 156.997 302.551 156.97 301.909C156.943 301.267 157.107 300.632 157.439 300.082C157.772 299.532 158.259 299.094 158.84 298.821C159.42 298.549 160.067 298.455 160.699 298.552C161.331 298.648 161.92 298.931 162.39 299.364C162.861 299.797 163.193 300.361 163.344 300.985C163.495 301.608 163.458 302.263 163.239 302.867C162.943 303.676 162.34 304.336 161.563 304.701C160.785 305.066 159.896 305.107 159.09 304.815ZM160.424 301.151C160.303 301.107 160.173 301.101 160.049 301.131C159.924 301.162 159.812 301.229 159.725 301.324C159.639 301.419 159.582 301.537 159.562 301.664C159.543 301.791 159.561 301.921 159.615 302.037C159.669 302.154 159.756 302.251 159.865 302.318C159.974 302.384 160.101 302.416 160.228 302.411C160.356 302.405 160.48 302.361 160.583 302.285C160.686 302.209 160.765 302.104 160.809 301.983C160.868 301.821 160.86 301.642 160.788 301.486C160.716 301.331 160.585 301.21 160.424 301.151Z" fill="#3F3D56"/>
<path d="M144.985 311.438C144.385 311.219 143.862 310.827 143.485 310.309C143.108 309.792 142.892 309.173 142.865 308.532C142.838 307.89 143.002 307.254 143.335 306.705C143.667 306.155 144.155 305.716 144.735 305.444C145.315 305.172 145.962 305.078 146.594 305.174C147.226 305.271 147.815 305.554 148.286 305.987C148.756 306.42 149.088 306.984 149.239 307.607C149.39 308.231 149.354 308.886 149.134 309.49C148.838 310.299 148.235 310.959 147.458 311.324C146.68 311.689 145.791 311.73 144.985 311.438ZM146.319 307.774C146.199 307.73 146.068 307.723 145.944 307.754C145.82 307.785 145.707 307.852 145.62 307.947C145.534 308.042 145.477 308.16 145.457 308.287C145.438 308.414 145.456 308.544 145.51 308.66C145.564 308.776 145.651 308.874 145.76 308.94C145.869 309.007 145.996 309.039 146.124 309.033C146.251 309.028 146.375 308.984 146.478 308.908C146.581 308.832 146.66 308.727 146.704 308.606C146.763 308.444 146.755 308.265 146.683 308.109C146.611 307.953 146.48 307.833 146.319 307.774Z" fill="#3F3D56"/>
<path d="M139.593 299.794C138.992 299.575 138.47 299.182 138.093 298.665C137.715 298.148 137.5 297.529 137.473 296.887C137.446 296.246 137.609 295.61 137.942 295.06C138.275 294.511 138.762 294.072 139.342 293.8C139.923 293.527 140.57 293.433 141.202 293.53C141.834 293.627 142.422 293.909 142.893 294.342C143.364 294.775 143.696 295.339 143.847 295.963C143.998 296.587 143.961 297.242 143.741 297.846C143.446 298.655 142.843 299.314 142.065 299.68C141.288 300.045 140.398 300.086 139.593 299.794ZM140.926 296.13C140.806 296.086 140.676 296.079 140.552 296.11C140.427 296.14 140.315 296.207 140.228 296.302C140.141 296.397 140.085 296.516 140.065 296.643C140.045 296.77 140.064 296.899 140.118 297.016C140.171 297.132 140.258 297.23 140.368 297.296C140.477 297.362 140.604 297.395 140.731 297.389C140.859 297.383 140.982 297.339 141.086 297.263C141.189 297.187 141.268 297.082 141.312 296.961C141.37 296.799 141.363 296.621 141.291 296.465C141.218 296.309 141.087 296.188 140.926 296.13Z" fill="#3F3D56"/>
<path d="M123.828 307.195C123.228 306.977 122.706 306.584 122.328 306.067C121.951 305.549 121.735 304.931 121.709 304.289C121.682 303.648 121.845 303.012 122.178 302.462C122.511 301.913 122.998 301.474 123.578 301.201C124.158 300.929 124.805 300.835 125.437 300.932C126.069 301.028 126.658 301.311 127.129 301.744C127.6 302.177 127.932 302.741 128.083 303.365C128.234 303.988 128.197 304.644 127.977 305.247C127.681 306.057 127.079 306.716 126.301 307.081C125.523 307.447 124.634 307.488 123.828 307.195ZM125.162 303.531C125.042 303.488 124.911 303.481 124.787 303.511C124.663 303.542 124.55 303.609 124.464 303.704C124.377 303.799 124.32 303.917 124.301 304.044C124.281 304.171 124.299 304.301 124.353 304.418C124.407 304.534 124.494 304.631 124.603 304.698C124.713 304.764 124.839 304.797 124.967 304.791C125.095 304.785 125.218 304.741 125.321 304.665C125.425 304.589 125.503 304.484 125.547 304.363C125.606 304.201 125.598 304.023 125.526 303.867C125.454 303.711 125.323 303.59 125.162 303.531Z" fill="#3F3D56"/>
<path d="M204.845 443.344L179.332 434.058C178.205 433.646 177.289 432.802 176.783 431.711C176.278 430.619 176.225 429.37 176.636 428.236L183.304 409.916C183.718 408.783 184.561 407.86 185.65 407.348C186.739 406.837 187.984 406.78 189.112 407.189L214.624 416.475C215.751 416.886 216.668 417.73 217.173 418.822C217.679 419.913 217.732 421.163 217.32 422.297L210.653 440.617C210.239 441.75 209.395 442.673 208.306 443.184C207.217 443.695 205.972 443.753 204.845 443.344ZM188.223 409.632C187.739 409.456 187.206 409.481 186.739 409.7C186.273 409.919 185.911 410.315 185.734 410.8L179.066 429.12C178.889 429.606 178.912 430.142 179.129 430.609C179.345 431.077 179.738 431.439 180.221 431.615L205.734 440.901C206.217 441.076 206.751 441.052 207.217 440.833C207.684 440.614 208.045 440.218 208.223 439.732L214.891 421.413C215.067 420.927 215.044 420.391 214.828 419.923C214.611 419.455 214.218 419.094 213.735 418.917L188.223 409.632Z" fill="#3F3D56"/>
<path d="M196.089 427.709C195.819 427.611 195.589 427.425 195.437 427.18L187.615 414.651C187.525 414.507 187.464 414.346 187.436 414.178C187.407 414.01 187.413 413.838 187.451 413.671C187.489 413.505 187.559 413.348 187.658 413.208C187.756 413.069 187.881 412.951 188.025 412.86C188.169 412.769 188.33 412.707 188.497 412.678C188.665 412.65 188.836 412.654 189.002 412.692C189.167 412.73 189.324 412.8 189.462 412.898C189.6 412.997 189.718 413.122 189.808 413.266L197.097 424.94L210.184 420.682C210.346 420.63 210.516 420.61 210.686 420.623C210.855 420.636 211.02 420.683 211.171 420.761C211.322 420.838 211.456 420.945 211.566 421.075C211.676 421.205 211.759 421.355 211.811 421.517C211.863 421.679 211.882 421.85 211.868 422.02C211.854 422.19 211.807 422.356 211.73 422.508C211.652 422.66 211.545 422.795 211.416 422.906C211.286 423.017 211.136 423.101 210.974 423.153L196.929 427.723C196.655 427.812 196.359 427.807 196.089 427.709Z" fill="#3F3D56"/>
<path d="M185.914 455.665C179.933 453.488 174.736 449.577 170.979 444.427C167.222 439.277 165.075 433.119 164.808 426.731C164.541 420.344 166.167 414.014 169.48 408.541C172.793 403.069 177.644 398.701 183.42 395.989C189.196 393.277 195.638 392.343 201.931 393.305C208.223 394.267 214.084 397.081 218.772 401.393C223.46 405.705 226.764 411.32 228.267 417.529C229.77 423.737 229.404 430.26 227.216 436.272C224.274 444.328 218.273 450.894 210.53 454.53C202.787 458.165 193.934 458.573 185.914 455.665ZM207.551 396.219C201.836 394.139 195.629 393.809 189.716 395.271C183.803 396.734 178.448 399.922 174.329 404.434C170.211 408.946 167.513 414.578 166.577 420.619C165.641 426.659 166.509 432.836 169.071 438.369C171.633 443.903 175.775 448.543 180.972 451.704C186.169 454.865 192.188 456.404 198.268 456.127C204.348 455.85 210.215 453.77 215.129 450.148C220.043 446.527 223.781 441.528 225.872 435.783C228.667 428.078 228.307 419.586 224.872 412.169C221.437 404.752 215.208 399.016 207.551 396.219Z" fill="#FF6584"/>
<path d="M131.507 333.35C125.526 331.174 120.329 327.263 116.572 322.113C112.815 316.963 110.667 310.805 110.4 304.417C110.133 298.029 111.759 291.699 115.072 286.227C118.385 280.755 123.237 276.387 129.013 273.675C134.789 270.963 141.231 270.029 147.523 270.991C153.816 271.952 159.676 274.767 164.364 279.079C169.052 283.391 172.356 289.006 173.86 295.214C175.363 301.423 174.997 307.945 172.809 313.958C169.866 322.014 163.865 328.58 156.122 332.215C148.379 335.851 139.527 336.259 131.507 333.35ZM153.143 273.905C147.428 271.825 141.222 271.495 135.309 272.957C129.395 274.42 124.041 277.608 119.922 282.12C115.803 286.632 113.105 292.264 112.169 298.304C111.233 304.345 112.101 310.522 114.664 316.055C117.226 321.588 121.368 326.229 126.564 329.39C131.761 332.55 137.78 334.09 143.86 333.813C149.94 333.536 155.808 331.455 160.722 327.834C165.635 324.213 169.374 319.214 171.465 313.469C174.259 305.764 173.899 297.272 170.465 289.855C167.03 282.438 160.8 276.701 153.143 273.905Z" fill="#FF6584"/>
<path d="M245.759 272.424C239.779 270.247 234.582 266.336 230.825 261.186C227.068 256.036 224.92 249.878 224.653 243.49C224.386 237.103 226.012 230.773 229.325 225.3C232.638 219.828 237.489 215.46 243.266 212.748C249.042 210.036 255.484 209.102 261.776 210.064C268.069 211.026 273.929 213.841 278.617 218.152C283.305 222.464 286.609 228.079 288.112 234.288C289.616 240.496 289.25 247.019 287.062 253.031C284.119 261.087 278.118 267.653 270.375 271.289C262.632 274.924 253.78 275.332 245.759 272.424ZM267.396 212.978C261.681 210.898 255.475 210.568 249.562 212.03C243.648 213.493 238.294 216.681 234.175 221.193C230.056 225.705 227.358 231.337 226.422 237.378C225.486 243.418 226.354 249.595 228.917 255.128C231.479 260.662 235.62 265.302 240.817 268.463C246.014 271.624 252.033 273.163 258.113 272.886C264.193 272.609 270.061 270.529 274.974 266.907C279.888 263.286 283.627 258.287 285.718 252.542C288.512 244.837 288.152 236.345 284.718 228.928C281.283 221.511 275.053 215.775 267.396 212.978Z" fill="#FF6584"/>
<path d="M198.83 150.472C192.849 148.296 187.652 144.385 183.895 139.235C180.138 134.085 177.99 127.927 177.723 121.539C177.456 115.151 179.082 108.821 182.395 103.349C185.708 97.8772 190.56 93.5089 196.336 90.7968C202.112 88.0846 208.554 87.1505 214.846 88.1125C221.139 89.0744 226.999 91.8893 231.687 96.2011C236.375 100.513 239.679 106.128 241.183 112.336C242.686 118.545 242.32 125.067 240.132 131.08C237.189 139.136 231.188 145.702 223.445 149.337C215.702 152.973 206.85 153.381 198.83 150.472ZM220.466 91.0265C214.751 88.9465 208.545 88.6169 202.632 90.0792C196.718 91.5415 191.364 94.7302 187.245 99.2419C183.126 103.754 180.428 109.386 179.492 115.426C178.556 121.467 179.424 127.644 181.987 133.177C184.549 138.71 188.691 143.351 193.887 146.512C199.084 149.672 205.103 151.212 211.183 150.935C217.263 150.658 223.131 148.577 228.045 144.956C232.958 141.335 236.697 136.336 238.788 130.591C241.582 122.886 241.222 114.394 237.788 106.977C234.353 99.5597 228.123 93.8234 220.466 91.0265Z" fill="#FF6584"/>
<path d="M240.577 256.336C240.274 256.224 240.003 256.038 239.79 255.794C239.577 255.551 239.428 255.257 239.357 254.941C239.285 254.624 239.294 254.294 239.381 253.981C239.469 253.668 239.632 253.382 239.858 253.148L243.677 249.197C241.721 245.556 241.175 241.313 242.145 237.283C243.114 233.252 245.53 229.718 248.929 227.357C252.328 224.997 256.471 223.976 260.563 224.491C264.656 225.007 268.41 227.021 271.105 230.149C273.801 233.276 275.248 237.297 275.169 241.44C275.091 245.582 273.492 249.555 270.68 252.596C267.868 255.638 264.04 257.533 259.93 257.92C255.821 258.307 251.719 257.157 248.411 254.691L241.716 256.39C241.339 256.487 240.942 256.468 240.577 256.336ZM263.294 227.68C260.499 226.661 257.455 226.541 254.584 227.337C251.712 228.133 249.155 229.806 247.268 232.123C245.38 234.44 244.255 237.287 244.049 240.269C243.842 243.251 244.565 246.22 246.116 248.766L246.585 249.538L242.476 253.789L248.954 252.145L249.403 252.505C251.027 253.804 252.915 254.733 254.934 255.225C256.954 255.718 259.058 255.764 261.1 255.359C263.142 254.954 265.073 254.109 266.761 252.881C268.448 251.654 269.85 250.074 270.87 248.25C271.891 246.426 272.505 244.403 272.67 242.321C272.835 240.238 272.547 238.146 271.826 236.189C271.106 234.233 269.969 232.458 268.496 230.989C267.023 229.519 265.248 228.39 263.294 227.68Z" fill="#3F3D56"/>
<path d="M257.829 242.694C259.036 243.133 260.373 242.506 260.815 241.292C261.256 240.079 260.636 238.739 259.429 238.299C258.222 237.86 256.885 238.488 256.443 239.701C256.002 240.915 256.622 242.254 257.829 242.694Z" fill="#3F3D56"/>
<path d="M251.637 240.44C252.844 240.879 254.181 240.252 254.622 239.038C255.064 237.825 254.444 236.485 253.236 236.046C252.029 235.606 250.693 236.234 250.251 237.447C249.81 238.661 250.43 240.001 251.637 240.44Z" fill="#3F3D56"/>
<path d="M264.022 244.948C265.229 245.387 266.565 244.759 267.007 243.546C267.449 242.332 266.828 240.993 265.621 240.553C264.414 240.114 263.078 240.741 262.636 241.955C262.194 243.168 262.815 244.508 264.022 244.948Z" fill="#3F3D56"/>
</svg>
