<svg width="369" height="546" viewBox="0 0 369 546" fill="none" xmlns="http://www.w3.org/2000/svg">
<path d="M338.351 178.723L335.707 178.014L355.125 105.544C358.106 94.4194 356.547 82.5667 350.791 72.5934C345.035 62.6201 335.554 55.3431 324.433 52.3633L170.942 11.2354C165.435 9.75998 159.692 9.38392 154.04 10.1287C148.388 10.8735 142.938 12.7246 138 15.5763C133.063 18.428 128.735 22.2244 125.264 26.7488C121.794 31.2732 119.247 36.437 117.772 41.9453L11.2395 439.528C8.25872 450.653 9.81774 462.505 15.5736 472.479C21.3295 482.452 30.8107 489.729 41.9316 492.709L195.423 533.837C206.543 536.816 218.393 535.255 228.364 529.495C238.335 523.736 245.612 514.251 248.592 503.127L321.884 229.599L324.528 230.308L338.351 178.723Z" fill="#3F3D56"/>
<path d="M323.202 63.7252L303.168 58.3571C303.484 60.8638 303.179 63.4099 302.28 65.771C301.38 68.1321 299.914 70.2357 298.01 71.8966C296.106 73.5575 293.823 74.7246 291.363 75.2951C288.902 75.8657 286.339 75.8221 283.899 75.1683L195.966 51.6066C193.526 50.9528 191.285 49.7089 189.439 47.9844C187.594 46.2599 186.201 44.1077 185.382 41.7176C184.564 39.3274 184.346 36.7726 184.748 34.2782C185.15 31.7838 186.158 29.4263 187.685 27.4134L168.972 22.3993C160.667 20.174 151.818 21.3401 144.371 25.641C136.925 29.9419 131.491 37.0254 129.265 45.3331L22.8876 442.339C20.6615 450.646 21.8258 459.498 26.1242 466.946C30.4226 474.394 37.5031 479.828 45.8081 482.053L200.039 523.379C208.343 525.605 217.193 524.439 224.639 520.138C232.086 515.837 237.52 508.753 239.746 500.446L346.123 103.439C348.349 95.1318 347.185 86.2805 342.886 78.8326C338.588 71.3848 331.507 65.9505 323.202 63.7252Z" fill="white"/>
<path d="M282.174 182.013L143.497 143.521C142.816 143.331 142.238 142.879 141.891 142.264C141.543 141.649 141.454 140.922 141.642 140.241L151.196 105.854C151.386 105.174 151.838 104.596 152.453 104.249C153.068 103.901 153.796 103.812 154.477 104L293.156 142.492C293.836 142.682 294.414 143.134 294.762 143.749C295.109 144.364 295.199 145.091 295.011 145.772L285.456 180.158C285.266 180.838 284.814 181.416 284.199 181.763C283.584 182.111 282.856 182.2 282.175 182.012L282.174 182.013ZM154.192 105.028C153.783 104.915 153.346 104.969 152.977 105.177C152.608 105.386 152.337 105.732 152.223 106.141L142.669 140.526C142.556 140.935 142.61 141.371 142.819 141.74C143.027 142.109 143.374 142.38 143.782 142.494L282.46 180.987C282.869 181.1 283.305 181.046 283.675 180.837C284.044 180.629 284.315 180.282 284.429 179.874L293.985 145.49C294.098 145.081 294.044 144.645 293.835 144.276C293.627 143.907 293.28 143.636 292.872 143.522L154.192 105.028Z" fill="#3F3D56"/>
<path d="M171.471 139.26C177.459 138.946 182.059 133.84 181.745 127.854C181.431 121.869 176.323 117.271 170.335 117.585C164.346 117.898 159.746 123.005 160.06 128.991C160.374 134.976 165.482 139.574 171.471 139.26Z" fill="#FF6584"/>
<path d="M196.998 128.157C196.769 128.093 196.53 128.075 196.294 128.104C196.058 128.133 195.831 128.208 195.624 128.325C195.417 128.442 195.235 128.598 195.089 128.785C194.942 128.973 194.834 129.187 194.771 129.416C194.707 129.644 194.689 129.884 194.718 130.119C194.747 130.355 194.822 130.583 194.939 130.79C195.056 130.997 195.212 131.178 195.399 131.325C195.587 131.471 195.801 131.579 196.03 131.642L278.225 154.457C278.454 154.52 278.693 154.538 278.929 154.509C279.165 154.48 279.392 154.405 279.599 154.288C279.806 154.171 279.988 154.015 280.134 153.828C280.281 153.641 280.389 153.427 280.452 153.198C280.516 152.969 280.534 152.73 280.505 152.494C280.476 152.258 280.401 152.03 280.284 151.824C280.167 151.617 280.011 151.435 279.824 151.289C279.636 151.142 279.422 151.034 279.193 150.971L196.998 128.157Z" fill="#E6E6E6"/>
<path d="M194.093 138.614C193.864 138.55 193.625 138.533 193.389 138.561C193.153 138.59 192.925 138.665 192.718 138.782C192.511 138.899 192.33 139.056 192.183 139.243C192.037 139.43 191.929 139.644 191.865 139.873C191.802 140.102 191.784 140.341 191.813 140.577C191.841 140.812 191.917 141.04 192.033 141.247C192.15 141.454 192.307 141.636 192.494 141.782C192.681 141.928 192.896 142.036 193.125 142.1L228.493 151.917C228.722 151.981 228.961 151.998 229.197 151.97C229.433 151.941 229.661 151.866 229.868 151.749C230.075 151.632 230.257 151.475 230.403 151.288C230.549 151.101 230.657 150.887 230.721 150.658C230.785 150.429 230.802 150.19 230.774 149.954C230.745 149.719 230.67 149.491 230.553 149.284C230.436 149.077 230.279 148.896 230.092 148.749C229.905 148.603 229.691 148.495 229.462 148.431L194.093 138.614Z" fill="#E6E6E6"/>
<path d="M260.134 280.339L202.235 241.844C201.596 241.418 201.151 240.754 201 239.998C200.848 239.242 201.001 238.456 201.425 237.811L222.896 205.28C223.322 204.637 223.984 204.188 224.737 204.034C225.489 203.879 226.272 204.031 226.912 204.455L284.813 242.95C285.452 243.376 285.896 244.04 286.048 244.796C286.199 245.552 286.046 246.339 285.622 246.983L264.152 279.514C263.726 280.158 263.064 280.607 262.31 280.762C261.557 280.916 260.774 280.764 260.134 280.339ZM226.27 205.429C225.886 205.174 225.416 205.084 224.965 205.176C224.513 205.269 224.116 205.538 223.861 205.924L202.39 238.456C202.135 238.842 202.044 239.314 202.135 239.768C202.226 240.221 202.493 240.619 202.876 240.875L260.778 279.368C261.162 279.622 261.631 279.713 262.083 279.62C262.534 279.528 262.931 279.259 263.187 278.873L284.658 246.341C284.912 245.955 285.004 245.483 284.913 245.029C284.822 244.576 284.555 244.177 284.172 243.922L226.27 205.429Z" fill="#3F3D56"/>
<path d="M180.054 259.038L125.626 222.615L153.256 208.584C153.751 208.332 154.302 208.216 154.853 208.249C155.404 208.281 155.936 208.459 156.395 208.767C156.854 209.074 157.225 209.499 157.469 209.999C157.713 210.499 157.823 211.056 157.787 211.615L156.927 224.932L176.997 214.739C177.617 214.424 178.306 214.28 178.996 214.32C179.686 214.36 180.352 214.584 180.927 214.969C181.501 215.353 181.965 215.886 182.271 216.511C182.576 217.137 182.714 217.835 182.669 218.535L180.054 259.038ZM127.947 222.75L179.025 256.932L181.507 218.469C181.539 217.977 181.442 217.485 181.226 217.044C181.011 216.603 180.684 216.228 180.279 215.957C179.874 215.686 179.405 215.528 178.919 215.5C178.433 215.472 177.947 215.573 177.51 215.795L155.635 226.903L156.626 211.548C156.649 211.196 156.58 210.845 156.426 210.529C156.272 210.214 156.039 209.946 155.749 209.753C155.46 209.559 155.125 209.447 154.777 209.426C154.43 209.406 154.083 209.479 153.771 209.637L127.947 222.75Z" fill="#FF6584"/>
<path d="M177.139 257.066L118.48 218.369C117.833 217.941 117.382 217.275 117.226 216.518C117.07 215.761 117.223 214.974 117.65 214.331L139.263 181.835C139.691 181.193 140.359 180.746 141.12 180.593C141.88 180.441 142.672 180.595 143.32 181.022L201.98 219.72C202.627 220.148 203.078 220.813 203.234 221.57C203.39 222.328 203.237 223.114 202.81 223.758L181.197 256.253C180.768 256.895 180.1 257.342 179.34 257.494C178.579 257.647 177.788 257.493 177.139 257.066ZM142.675 181.992C142.286 181.736 141.811 181.643 141.355 181.735C140.899 181.826 140.498 182.094 140.241 182.48L118.628 214.976C118.372 215.362 118.281 215.834 118.374 216.288C118.468 216.742 118.738 217.142 119.127 217.398L177.786 256.096C178.175 256.352 178.65 256.445 179.106 256.353C179.563 256.261 179.963 255.993 180.221 255.608L201.834 223.112C202.09 222.726 202.181 222.254 202.088 221.8C201.995 221.346 201.724 220.946 201.335 220.69L142.675 181.992Z" fill="#3F3D56"/>
<path d="M260.41 250.437C260.626 250.582 260.869 250.683 261.124 250.732C261.379 250.782 261.642 250.78 261.897 250.726C262.152 250.673 262.395 250.569 262.612 250.42C262.828 250.272 263.014 250.081 263.159 249.86C263.304 249.639 263.404 249.392 263.455 249.132C263.506 248.873 263.506 248.606 263.455 248.347C263.404 248.088 263.304 247.843 263.159 247.624C263.014 247.406 262.828 247.219 262.612 247.075L229.226 224.699C229.01 224.554 228.767 224.454 228.512 224.404C228.257 224.354 227.994 224.356 227.739 224.41C227.483 224.464 227.24 224.568 227.024 224.716C226.807 224.865 226.622 225.055 226.477 225.276C226.332 225.497 226.231 225.744 226.181 226.004C226.13 226.264 226.13 226.53 226.181 226.789C226.231 227.048 226.332 227.294 226.477 227.512C226.621 227.73 226.807 227.917 227.024 228.062L260.41 250.437Z" fill="#FF6584"/>
<path d="M258.079 259.136C258.297 259.277 258.54 259.375 258.795 259.426C259.05 259.477 259.311 259.478 259.565 259.432C259.818 259.385 260.059 259.29 260.272 259.153C260.486 259.015 260.668 258.838 260.809 258.632C260.95 258.425 261.046 258.193 261.093 257.948C261.14 257.703 261.136 257.451 261.082 257.206C261.027 256.961 260.923 256.727 260.776 256.519C260.629 256.31 260.441 256.131 260.223 255.991L226.639 234.352C226.422 234.212 226.179 234.114 225.924 234.063C225.669 234.012 225.407 234.01 225.154 234.057C224.9 234.104 224.66 234.199 224.447 234.336C224.233 234.473 224.051 234.65 223.91 234.857C223.769 235.064 223.672 235.296 223.626 235.541C223.579 235.785 223.583 236.038 223.637 236.283C223.692 236.528 223.795 236.762 223.943 236.97C224.09 237.179 224.278 237.358 224.496 237.498L258.079 259.136Z" fill="#FF6584"/>
<path d="M228.354 370.078L95.835 333.195C95.1846 333.014 94.6207 332.623 94.267 332.111C93.9134 331.598 93.7989 331.004 93.9486 330.459L108.021 279.553C108.172 279.008 108.575 278.559 109.142 278.302C109.708 278.045 110.392 278.002 111.042 278.182L243.562 315.064C244.213 315.246 244.777 315.636 245.13 316.149C245.484 316.662 245.599 317.256 245.449 317.8L231.376 368.708C231.224 369.252 230.821 369.702 230.255 369.959C229.689 370.215 229.005 370.258 228.354 370.078ZM110.815 279.003C110.425 278.895 110.015 278.921 109.675 279.075C109.335 279.229 109.093 279.499 109.002 279.825L94.9302 330.732C94.8403 331.059 94.9091 331.415 95.1213 331.723C95.3336 332.031 95.672 332.265 96.0622 332.374L228.582 369.257C228.973 369.365 229.383 369.339 229.723 369.185C230.063 369.031 230.304 368.761 230.395 368.435L244.468 317.527C244.558 317.2 244.489 316.844 244.277 316.536C244.065 316.229 243.727 315.995 243.336 315.886L110.815 279.003Z" fill="#3F3D56"/>
<path d="M126.961 310.487C132.651 310.476 136.825 306.522 136.282 301.654C135.739 296.786 130.685 292.848 124.994 292.858C119.304 292.869 115.131 296.823 115.674 301.691C116.217 306.559 121.27 310.497 126.961 310.487Z" fill="#FF6584"/>
<path d="M150.822 302.522C150.377 302.399 149.908 302.428 149.52 302.603C149.131 302.777 148.855 303.083 148.752 303.452C148.648 303.822 148.726 304.226 148.968 304.574C149.21 304.922 149.596 305.187 150.042 305.31L229.262 327.169C229.482 327.23 229.711 327.254 229.934 327.241C230.158 327.227 230.372 327.175 230.564 327.089C230.757 327.003 230.923 326.883 231.055 326.737C231.187 326.591 231.281 326.422 231.332 326.239C231.384 326.056 231.391 325.863 231.354 325.67C231.317 325.478 231.236 325.29 231.116 325.118C230.996 324.945 230.84 324.791 230.655 324.665C230.471 324.539 230.263 324.442 230.042 324.381L150.822 302.522Z" fill="#E6E6E6"/>
<path d="M148.483 310.885C148.263 310.824 148.034 310.8 147.811 310.814C147.587 310.828 147.373 310.879 147.181 310.966C146.989 311.052 146.822 311.172 146.69 311.317C146.558 311.463 146.464 311.632 146.413 311.815C146.361 311.999 146.354 312.192 146.391 312.384C146.428 312.577 146.509 312.764 146.629 312.937C146.749 313.109 146.905 313.263 147.09 313.39C147.274 313.516 147.482 313.612 147.703 313.673L181.792 323.079C182.012 323.14 182.241 323.165 182.464 323.151C182.688 323.137 182.902 323.085 183.094 322.999C183.286 322.913 183.453 322.793 183.585 322.647C183.717 322.502 183.811 322.332 183.862 322.149C183.913 321.966 183.921 321.773 183.884 321.581C183.846 321.388 183.766 321.2 183.646 321.028C183.526 320.855 183.37 320.701 183.185 320.575C183.001 320.449 182.793 320.352 182.572 320.292L148.483 310.885Z" fill="#E6E6E6"/>
<path d="M113.721 315.697C112.443 315.344 111.228 315.682 111.013 316.453C110.798 317.223 111.663 318.134 112.941 318.486L222.24 348.646C223.519 348.998 224.734 348.66 224.948 347.889C225.163 347.119 224.298 346.209 223.02 345.856L113.721 315.697Z" fill="#E6E6E6"/>
<path d="M111.381 324.06C110.103 323.708 108.888 324.046 108.673 324.817C108.458 325.587 109.323 326.497 110.601 326.85L219.9 357.009C221.179 357.362 222.394 357.024 222.609 356.253C222.823 355.483 221.958 354.572 220.68 354.22L111.381 324.06Z" fill="#E6E6E6"/>
<path d="M130.196 444.806L77.0011 430.041C76.4136 429.877 75.9152 429.487 75.6151 428.956C75.315 428.425 75.2377 427.797 75.4002 427.21L90.7871 371.83C90.951 371.243 91.3412 370.745 91.8721 370.445C92.4031 370.145 93.0314 370.068 93.6192 370.23L146.815 384.996C147.403 385.159 147.901 385.549 148.201 386.08C148.502 386.611 148.579 387.239 148.416 387.826L133.028 443.206C132.865 443.793 132.474 444.291 131.943 444.591C131.412 444.891 130.784 444.969 130.196 444.806ZM93.3713 371.116C93.0186 371.018 92.6416 371.065 92.323 371.245C92.0045 371.425 91.7704 371.724 91.6722 372.076L76.2848 427.456C76.1873 427.808 76.2337 428.185 76.4138 428.504C76.5939 428.822 76.893 429.056 77.2455 429.154L130.443 443.92C130.795 444.017 131.172 443.971 131.491 443.791C131.809 443.611 132.044 443.312 132.142 442.96L147.529 387.58C147.626 387.228 147.58 386.851 147.4 386.532C147.22 386.214 146.92 385.98 146.568 385.882L93.3713 371.116Z" fill="#2F2E41"/>
<path d="M195.806 463.018L142.609 448.252C142.021 448.088 141.523 447.698 141.222 447.167C140.922 446.636 140.845 446.008 141.008 445.421L156.395 390.041C156.558 389.454 156.949 388.956 157.48 388.656C158.011 388.356 158.639 388.279 159.227 388.441L212.424 403.207C213.011 403.371 213.51 403.761 213.81 404.291C214.11 404.822 214.187 405.45 214.025 406.038L198.638 461.417C198.474 462.004 198.084 462.502 197.553 462.803C197.022 463.103 196.394 463.18 195.806 463.018ZM158.981 389.327C158.628 389.23 158.251 389.276 157.933 389.456C157.614 389.636 157.38 389.935 157.282 390.288L141.894 445.667C141.797 446.02 141.843 446.396 142.023 446.715C142.203 447.033 142.502 447.267 142.855 447.365L196.052 462.132C196.405 462.229 196.782 462.183 197.1 462.003C197.419 461.823 197.653 461.524 197.751 461.171L213.138 405.792C213.236 405.439 213.189 405.063 213.009 404.744C212.829 404.426 212.53 404.192 212.177 404.094L158.981 389.327Z" fill="#2F2E41"/>
<path d="M101.779 384.796C101.581 384.741 101.375 384.726 101.171 384.75C100.967 384.775 100.77 384.84 100.592 384.941C100.413 385.041 100.256 385.176 100.129 385.338C100.003 385.5 99.9093 385.685 99.8543 385.882C99.7994 386.08 99.784 386.287 99.809 386.49C99.834 386.694 99.8989 386.891 100 387.069C100.101 387.248 100.236 387.405 100.398 387.531C100.56 387.657 100.745 387.75 100.943 387.805L131.47 396.278C131.869 396.388 132.295 396.336 132.655 396.132C133.015 395.928 133.28 395.59 133.391 395.191C133.502 394.793 133.449 394.366 133.246 394.006C133.043 393.646 132.704 393.381 132.306 393.27L101.779 384.796Z" fill="#FF6584"/>
<path d="M99.3172 393.659C99.1195 393.603 98.9128 393.588 98.7091 393.613C98.5053 393.637 98.3084 393.702 98.1296 393.803C97.9508 393.904 97.7937 394.039 97.6672 394.2C97.5407 394.362 97.4473 394.547 97.3924 394.745C97.3375 394.942 97.3221 395.149 97.3471 395.353C97.3721 395.556 97.437 395.753 97.5381 395.932C97.6392 396.11 97.7746 396.267 97.9364 396.393C98.0982 396.519 98.2834 396.613 98.4813 396.667L129.009 405.142C129.407 405.252 129.833 405.199 130.193 404.995C130.552 404.791 130.816 404.453 130.927 404.055C131.038 403.657 130.986 403.231 130.783 402.871C130.58 402.511 130.243 402.246 129.845 402.134L99.3172 393.659Z" fill="#FF6584"/>
<path d="M187.644 448.451C188.043 448.561 188.469 448.509 188.829 448.305C189.189 448.101 189.454 447.762 189.565 447.364C189.675 446.965 189.623 446.539 189.42 446.179C189.216 445.818 188.878 445.554 188.48 445.442L157.953 436.969C157.554 436.859 157.128 436.911 156.767 437.115C156.407 437.319 156.143 437.658 156.032 438.056C155.921 438.455 155.973 438.881 156.177 439.241C156.38 439.602 156.718 439.866 157.117 439.978L187.644 448.451Z" fill="#FF6584"/>
<path d="M190.106 439.588C190.303 439.643 190.51 439.659 190.714 439.634C190.918 439.609 191.114 439.545 191.293 439.444C191.472 439.343 191.629 439.208 191.756 439.046C191.882 438.885 191.975 438.7 192.03 438.502C192.085 438.304 192.101 438.098 192.076 437.894C192.051 437.69 191.986 437.494 191.885 437.315C191.784 437.137 191.648 436.98 191.486 436.853C191.325 436.727 191.139 436.634 190.942 436.579L160.415 428.106C160.217 428.051 160.011 428.035 159.807 428.06C159.603 428.085 159.406 428.149 159.227 428.25C159.048 428.351 158.891 428.486 158.765 428.648C158.638 428.809 158.545 428.994 158.49 429.192C158.435 429.39 158.42 429.596 158.445 429.8C158.47 430.004 158.535 430.2 158.636 430.379C158.737 430.558 158.872 430.714 159.034 430.841C159.196 430.967 159.381 431.06 159.579 431.115L190.106 439.588Z" fill="#FF6584"/>
</svg>
