<svg width="404" height="554" viewBox="0 0 404 554" fill="none" xmlns="http://www.w3.org/2000/svg">
<path d="M363.45 196.288L360.877 195.351L386.538 124.85C390.477 114.027 389.957 102.084 385.092 91.6466C380.227 81.2096 371.416 73.1339 360.598 69.1962L211.275 14.8472C205.918 12.8975 200.23 12.0223 194.534 12.2716C188.838 12.521 183.247 13.89 178.08 16.3005C172.913 18.711 168.271 22.1158 164.419 26.3205C160.567 30.5252 157.581 35.4474 155.63 40.8061L14.8522 427.591C10.9132 438.414 11.4332 450.357 16.298 460.794C21.1627 471.231 29.9736 479.307 40.7925 483.244L190.115 537.593C200.934 541.531 212.874 541.008 223.309 536.14C233.745 531.272 241.82 522.457 245.759 511.634L342.611 245.536L345.184 246.472L363.45 196.288Z" fill="#3F3D56"/>
<path d="M358.381 80.4076L338.891 73.3139C338.987 75.8386 338.461 78.3483 337.359 80.6221C336.257 82.8958 334.613 84.8636 332.572 86.3523C330.531 87.8409 328.155 88.8046 325.654 89.1585C323.153 89.5124 320.603 89.2456 318.23 88.3816L232.685 57.2458C230.311 56.3818 228.187 54.9472 226.499 53.0685C224.811 51.1897 223.61 48.9243 223.004 46.4719C222.397 44.0196 222.402 41.4555 223.02 39.0055C223.637 36.5556 224.848 34.295 226.544 32.4229L208.339 25.7969C200.26 22.8563 191.343 23.2466 183.55 26.8822C175.757 30.5177 169.726 37.1006 166.784 45.1827L26.2106 431.406C23.2689 439.488 23.6573 448.407 27.2902 456.202C30.9232 463.996 37.5031 470.027 45.5825 472.967L195.624 527.578C203.704 530.519 212.621 530.129 220.414 526.493C228.207 522.857 234.237 516.274 237.179 508.192L377.753 121.968C380.695 113.886 380.306 104.967 376.673 97.1731C373.04 89.379 366.46 83.3482 358.381 80.4076Z" fill="white"/>
<path d="M205.186 126.671C204.37 126.382 203.625 125.925 202.997 125.329C202.37 124.733 201.875 124.011 201.545 123.211C201.168 122.221 201 121.163 201.052 120.105C201.103 119.046 201.373 118.01 201.844 117.06C202.686 115.232 204.122 113.743 205.919 112.836C206.786 112.39 207.735 112.125 208.708 112.059C209.681 111.993 210.657 112.126 211.576 112.45C212.43 112.757 213.209 113.239 213.863 113.867C214.518 114.494 215.033 115.252 215.375 116.092C215.757 117.062 215.934 118.1 215.894 119.142C215.855 120.183 215.6 121.206 215.146 122.144C214.297 124.1 212.749 125.668 210.806 126.544C209.017 127.302 207.007 127.347 205.186 126.671ZM210.69 114.885C208.307 114.018 205.453 115.455 204.192 118.157C203.873 118.78 203.686 119.463 203.642 120.162C203.599 120.861 203.7 121.562 203.939 122.22C204.13 122.689 204.42 123.111 204.788 123.458C205.156 123.806 205.594 124.071 206.072 124.235C208.3 125.046 211.244 124.375 212.799 121.047C213.101 120.435 213.273 119.766 213.305 119.084C213.336 118.402 213.226 117.721 212.981 117.083C212.775 116.577 212.464 116.119 212.07 115.74C211.675 115.362 211.205 115.07 210.69 114.885Z" fill="#3F3D56"/>
<path d="M202.606 134.005C200.712 133.35 198.979 132.3 197.521 130.924C196.064 129.548 194.916 127.878 194.153 126.024C193.391 124.171 193.031 122.176 193.098 120.172C193.165 118.169 193.657 116.202 194.541 114.403C196.371 110.617 199.526 107.634 203.408 106.019C207.289 104.404 211.628 104.27 215.602 105.642C219.984 107.237 223.077 109.958 224.546 113.51C225.94 116.879 225.728 120.83 223.951 124.636C222.267 128.241 219.982 129.606 218.36 130.116C217.635 130.369 216.865 130.471 216.099 130.418C215.332 130.364 214.584 130.155 213.901 129.804C212.026 128.719 210.473 126.092 212.264 122.257L215.575 115.168C215.721 114.858 215.984 114.619 216.306 114.503C216.629 114.387 216.984 114.403 217.294 114.548C217.604 114.693 217.844 114.955 217.962 115.276C218.08 115.598 218.065 115.953 217.922 116.264L214.611 123.354C213.721 125.26 213.94 126.833 215.198 127.561C215.951 127.903 216.809 127.933 217.583 127.644C218.708 127.29 220.319 126.291 221.604 123.539C223.091 120.355 223.281 117.229 222.152 114.502C220.968 111.639 218.396 109.417 214.715 108.077C211.351 106.925 207.681 107.043 204.397 108.41C201.114 109.777 198.443 112.298 196.889 115.498C196.156 116.971 195.747 118.584 195.688 120.228C195.629 121.873 195.922 123.511 196.547 125.032C197.172 126.554 198.115 127.925 199.313 129.052C200.511 130.179 201.936 131.038 203.492 131.57C205.361 132.367 207.391 132.714 209.419 132.585C209.761 132.569 210.096 132.69 210.349 132.921C210.602 133.152 210.754 133.474 210.77 133.816C210.787 134.158 210.667 134.493 210.438 134.748C210.208 135.002 209.887 135.155 209.545 135.173C207.173 135.319 204.799 134.92 202.606 134.005Z" fill="#3F3D56"/>
<path d="M126.411 303.362C126.171 303.274 125.961 303.117 125.81 302.911C125.658 302.704 125.572 302.457 125.56 302.201C125.549 301.945 125.614 301.691 125.747 301.472C125.88 301.253 126.075 301.079 126.307 300.97L137.099 295.936C137.41 295.793 137.765 295.78 138.086 295.898C138.406 296.016 138.667 296.256 138.812 296.566C138.956 296.876 138.972 297.231 138.857 297.552C138.741 297.874 138.503 298.137 138.194 298.284L127.402 303.319C127.248 303.391 127.081 303.432 126.911 303.439C126.741 303.447 126.571 303.42 126.411 303.362ZM147.602 307.628C147.361 307.54 147.152 307.383 147.001 307.176C146.849 306.97 146.763 306.723 146.751 306.467C146.74 306.211 146.805 305.957 146.938 305.738C147.071 305.519 147.266 305.344 147.498 305.236L156.63 300.976C156.941 300.834 157.295 300.82 157.616 300.938C157.937 301.056 158.198 301.296 158.342 301.606C158.487 301.916 158.503 302.271 158.387 302.593C158.271 302.914 158.033 303.177 157.724 303.324L148.593 307.584C148.439 307.656 148.272 307.697 148.102 307.705C147.932 307.712 147.762 307.686 147.602 307.628ZM143.951 306.299C143.791 306.241 143.644 306.152 143.518 306.037C143.393 305.922 143.292 305.783 143.22 305.629L140.124 298.986C140.051 298.832 140.009 298.665 140 298.494C139.992 298.323 140.017 298.153 140.075 297.992C140.133 297.831 140.222 297.683 140.338 297.557C140.453 297.431 140.592 297.329 140.747 297.256C140.902 297.184 141.069 297.143 141.24 297.136C141.411 297.129 141.581 297.156 141.742 297.215C141.902 297.274 142.049 297.364 142.174 297.48C142.3 297.596 142.401 297.736 142.472 297.891L145.568 304.533C145.676 304.766 145.713 305.025 145.674 305.278C145.635 305.531 145.522 305.767 145.349 305.956C145.176 306.145 144.95 306.279 144.702 306.34C144.453 306.4 144.191 306.386 143.951 306.299Z" fill="#3F3D56"/>
<path d="M158.56 304.032C157.958 303.813 157.434 303.42 157.056 302.904C156.677 302.387 156.46 301.77 156.432 301.13C156.404 300.49 156.567 299.856 156.899 299.308C157.232 298.76 157.719 298.324 158.299 298.053C158.88 297.782 159.527 297.689 160.16 297.787C160.793 297.884 161.383 298.167 161.856 298.6C162.328 299.033 162.661 299.596 162.813 300.218C162.965 300.84 162.93 301.494 162.71 302.096C162.416 302.902 161.813 303.559 161.035 303.922C160.257 304.285 159.367 304.325 158.56 304.032ZM159.889 300.379C159.769 300.336 159.638 300.328 159.514 300.359C159.389 300.389 159.277 300.456 159.19 300.551C159.103 300.645 159.047 300.763 159.027 300.89C159.008 301.016 159.026 301.146 159.08 301.262C159.135 301.378 159.222 301.476 159.331 301.542C159.441 301.609 159.568 301.641 159.696 301.635C159.824 301.63 159.947 301.586 160.05 301.511C160.154 301.435 160.232 301.33 160.276 301.21C160.335 301.048 160.327 300.87 160.254 300.714C160.182 300.559 160.05 300.438 159.889 300.379Z" fill="#3F3D56"/>
<path d="M144.447 310.616C143.845 310.397 143.322 310.004 142.943 309.487C142.565 308.971 142.348 308.354 142.32 307.714C142.292 307.073 142.454 306.44 142.787 305.892C143.119 305.344 143.606 304.907 144.187 304.636C144.767 304.366 145.415 304.273 146.048 304.37C146.681 304.468 147.271 304.751 147.743 305.184C148.215 305.616 148.548 306.179 148.701 306.802C148.853 307.424 148.817 308.077 148.598 308.679C148.303 309.486 147.701 310.143 146.923 310.506C146.144 310.869 145.254 310.909 144.447 310.616ZM145.777 306.963C145.656 306.919 145.526 306.912 145.401 306.943C145.277 306.973 145.164 307.04 145.078 307.134C144.991 307.229 144.934 307.347 144.915 307.473C144.895 307.6 144.914 307.73 144.968 307.846C145.022 307.962 145.109 308.059 145.219 308.126C145.328 308.192 145.455 308.225 145.583 308.219C145.711 308.214 145.835 308.17 145.938 308.094C146.041 308.019 146.12 307.914 146.164 307.793C146.222 307.632 146.214 307.454 146.142 307.298C146.069 307.143 145.938 307.022 145.777 306.963Z" fill="#3F3D56"/>
<path d="M139.029 298.992C138.427 298.773 137.904 298.38 137.525 297.864C137.147 297.347 136.93 296.73 136.902 296.09C136.874 295.45 137.036 294.816 137.369 294.268C137.701 293.72 138.188 293.283 138.769 293.013C139.349 292.742 139.997 292.649 140.63 292.747C141.263 292.844 141.853 293.127 142.325 293.56C142.797 293.992 143.13 294.556 143.283 295.178C143.435 295.8 143.399 296.454 143.18 297.056C142.885 297.862 142.283 298.519 141.505 298.882C140.726 299.245 139.836 299.285 139.029 298.992ZM140.359 295.339C140.238 295.295 140.108 295.288 139.983 295.319C139.859 295.349 139.746 295.416 139.66 295.51C139.573 295.605 139.516 295.723 139.497 295.85C139.477 295.976 139.496 296.106 139.55 296.222C139.604 296.338 139.691 296.435 139.801 296.502C139.91 296.568 140.037 296.601 140.165 296.595C140.293 296.59 140.417 296.546 140.52 296.47C140.623 296.395 140.702 296.29 140.746 296.17C140.804 296.008 140.796 295.83 140.724 295.674C140.651 295.519 140.52 295.398 140.359 295.339Z" fill="#3F3D56"/>
<path d="M123.256 306.35C122.654 306.131 122.131 305.738 121.752 305.222C121.374 304.705 121.157 304.088 121.129 303.448C121.101 302.808 121.263 302.174 121.596 301.626C121.928 301.078 122.415 300.642 122.996 300.371C123.576 300.1 124.224 300.007 124.857 300.105C125.49 300.202 126.08 300.485 126.552 300.918C127.024 301.351 127.357 301.914 127.51 302.536C127.662 303.158 127.626 303.812 127.407 304.414C127.112 305.22 126.51 305.877 125.732 306.24C124.954 306.603 124.063 306.643 123.256 306.35ZM124.586 302.697C124.465 302.654 124.335 302.646 124.21 302.677C124.086 302.707 123.973 302.774 123.887 302.869C123.8 302.963 123.743 303.081 123.724 303.208C123.704 303.334 123.723 303.464 123.777 303.58C123.831 303.696 123.919 303.794 124.028 303.86C124.138 303.927 124.264 303.959 124.392 303.953C124.52 303.948 124.644 303.904 124.747 303.829C124.85 303.753 124.929 303.648 124.973 303.528C125.031 303.366 125.023 303.188 124.951 303.032C124.878 302.877 124.747 302.756 124.586 302.697Z" fill="#3F3D56"/>
<path d="M204.594 442.287L179.034 432.983C177.905 432.571 176.985 431.728 176.478 430.638C175.97 429.548 175.915 428.302 176.325 427.172L182.972 408.908C183.385 407.779 184.228 406.859 185.317 406.351C186.407 405.843 187.653 405.787 188.783 406.197L214.343 415.5C215.472 415.913 216.391 416.756 216.899 417.846C217.407 418.935 217.462 420.182 217.052 421.312L210.405 439.576C209.992 440.705 209.149 441.625 208.059 442.133C206.97 442.641 205.724 442.696 204.594 442.287ZM187.897 408.632C187.413 408.457 186.878 408.48 186.411 408.698C185.945 408.916 185.583 409.31 185.406 409.794L178.759 428.058C178.583 428.542 178.607 429.076 178.824 429.543C179.042 430.01 179.436 430.372 179.92 430.548L205.48 439.852C205.964 440.027 206.499 440.003 206.965 439.786C207.432 439.568 207.794 439.174 207.971 438.69L214.618 420.426C214.794 419.942 214.77 419.408 214.552 418.941C214.335 418.474 213.941 418.112 213.457 417.935L187.897 408.632Z" fill="#3F3D56"/>
<path d="M195.802 426.677C195.531 426.578 195.301 426.392 195.148 426.148L187.296 413.638C187.206 413.494 187.144 413.334 187.116 413.166C187.087 412.998 187.092 412.827 187.13 412.661C187.168 412.495 187.238 412.338 187.337 412.199C187.435 412.061 187.56 411.943 187.704 411.852C187.848 411.762 188.009 411.7 188.177 411.672C188.344 411.643 188.516 411.648 188.682 411.686C188.848 411.724 189.004 411.794 189.143 411.893C189.282 411.991 189.4 412.116 189.49 412.26L196.807 423.917L209.904 419.69C210.066 419.638 210.237 419.618 210.406 419.632C210.576 419.646 210.741 419.693 210.892 419.77C211.044 419.848 211.178 419.954 211.289 420.084C211.399 420.214 211.482 420.364 211.535 420.526C211.587 420.688 211.607 420.858 211.593 421.028C211.579 421.197 211.532 421.363 211.454 421.514C211.377 421.665 211.27 421.8 211.141 421.91C211.011 422.021 210.861 422.104 210.699 422.156L196.643 426.692C196.369 426.781 196.073 426.776 195.802 426.677Z" fill="#3F3D56"/>
<path d="M185.658 454.546C179.667 452.366 174.457 448.457 170.687 443.313C166.917 438.17 164.756 432.024 164.479 425.652C164.202 419.28 165.819 412.968 169.128 407.515C172.436 402.062 177.287 397.712 183.066 395.016C188.846 392.32 195.294 391.399 201.596 392.368C207.899 393.338 213.771 396.155 218.472 400.463C223.173 404.772 226.491 410.378 228.005 416.573C229.52 422.769 229.165 429.274 226.983 435.268C224.05 443.299 218.051 449.839 210.304 453.454C202.557 457.068 193.694 457.461 185.658 454.546ZM207.228 395.284C201.503 393.2 195.288 392.861 189.369 394.311C183.451 395.76 178.094 398.932 173.977 403.426C169.86 407.92 167.168 413.534 166.24 419.557C165.313 425.581 166.192 431.744 168.766 437.268C171.341 442.791 175.495 447.427 180.704 450.588C185.912 453.749 191.942 455.294 198.029 455.027C204.116 454.761 209.988 452.695 214.902 449.09C219.817 445.486 223.552 440.505 225.637 434.778C228.422 427.097 228.049 418.626 224.598 411.222C221.147 403.818 214.9 398.086 207.228 395.284Z" fill="#FF6584"/>
<path d="M130.986 332.452C124.994 330.271 119.784 326.362 116.014 321.219C112.244 316.076 110.084 309.929 109.806 303.557C109.529 297.185 111.147 290.874 114.455 285.421C117.764 279.968 122.614 275.618 128.394 272.922C134.173 270.226 140.622 269.304 146.924 270.274C153.226 271.243 159.099 274.06 163.8 278.369C168.5 282.677 171.818 288.284 173.333 294.479C174.848 300.674 174.492 307.18 172.31 313.174C169.377 321.205 163.379 327.745 155.632 331.359C147.884 334.973 139.021 335.366 130.986 332.452ZM152.556 273.189C146.83 271.106 140.615 270.767 134.697 272.216C128.778 273.665 123.422 276.837 119.305 281.331C115.188 285.825 112.495 291.439 111.568 297.463C110.64 303.487 111.519 309.65 114.094 315.173C116.668 320.697 120.822 325.332 126.031 328.493C131.24 331.654 137.269 333.199 143.356 332.933C149.444 332.666 155.316 330.6 160.23 326.996C165.144 323.392 168.879 318.411 170.964 312.683C173.75 305.003 173.376 296.531 169.925 289.127C166.474 281.723 160.227 275.991 152.556 273.189Z" fill="#FF6584"/>
<path d="M245.289 271.86C239.298 269.679 234.088 265.77 230.318 260.627C226.548 255.483 224.387 249.337 224.11 242.965C223.832 236.593 225.45 230.281 228.759 224.828C232.067 219.375 236.918 215.026 242.697 212.33C248.477 209.633 254.925 208.712 261.227 209.681C267.53 210.651 273.402 213.468 278.103 217.777C282.804 222.085 286.122 227.691 287.636 233.887C289.151 240.082 288.796 246.588 286.614 252.581C283.681 260.613 277.682 267.153 269.935 270.767C262.188 274.381 253.325 274.774 245.289 271.86ZM266.859 212.597C261.134 210.513 254.919 210.175 249 211.624C243.082 213.073 237.725 216.245 233.608 220.739C229.491 225.233 226.799 230.847 225.871 236.871C224.944 242.894 225.823 249.058 228.397 254.581C230.972 260.104 235.126 264.74 240.335 267.901C245.543 271.062 251.573 272.607 257.66 272.341C263.747 272.074 269.619 270.008 274.533 266.404C279.448 262.799 283.183 257.819 285.268 252.091C288.053 244.411 287.68 235.939 284.229 228.535C280.778 221.131 274.531 215.399 266.859 212.597Z" fill="#FF6584"/>
<path d="M198.105 150.139C192.113 147.958 186.903 144.049 183.133 138.906C179.363 133.763 177.202 127.617 176.925 121.245C176.648 114.873 178.265 108.561 181.574 103.108C184.882 97.6547 189.733 93.3051 195.512 90.609C201.292 87.9128 207.74 86.9913 214.042 87.9609C220.345 88.9304 226.217 91.7476 230.918 96.0561C235.619 100.365 238.937 105.971 240.452 112.166C241.966 118.361 241.611 124.867 239.429 130.861C236.496 138.892 230.497 145.432 222.75 149.046C215.003 152.66 206.14 153.053 198.105 150.139ZM219.674 90.8766C213.949 88.7927 207.734 88.454 201.815 89.9032C195.897 91.3525 190.54 94.5246 186.423 99.0185C182.306 103.512 179.614 109.126 178.686 115.15C177.759 121.174 178.638 127.337 181.212 132.86C183.787 138.384 187.941 143.019 193.15 146.18C198.358 149.342 204.388 150.887 210.475 150.62C216.562 150.354 222.434 148.288 227.348 144.683C232.263 141.079 235.998 136.098 238.083 130.371C240.868 122.69 240.495 114.219 237.044 106.814C233.593 99.4105 227.346 93.6787 219.674 90.8766Z" fill="#FF6584"/>
<path d="M240.075 255.804C239.771 255.692 239.5 255.506 239.286 255.263C239.072 255.019 238.923 254.726 238.851 254.41C238.779 254.095 238.787 253.766 238.874 253.454C238.961 253.141 239.124 252.856 239.349 252.623L243.167 248.688C241.203 245.053 240.65 240.82 241.614 236.801C242.578 232.782 244.991 229.261 248.391 226.911C251.791 224.562 255.937 223.551 260.036 224.071C264.134 224.591 267.896 226.607 270.6 229.731C273.304 232.855 274.76 236.868 274.688 241C274.616 245.132 273.022 249.093 270.211 252.122C267.399 255.151 263.57 257.036 259.455 257.415C255.341 257.794 251.232 256.641 247.916 254.176L241.215 255.86C240.838 255.956 240.441 255.937 240.075 255.804ZM262.775 227.256C259.975 226.235 256.927 226.111 254.053 226.9C251.179 227.69 248.622 229.354 246.735 231.662C244.849 233.971 243.727 236.809 243.525 239.783C243.323 242.757 244.052 245.72 245.609 248.262L246.08 249.032L241.972 253.266L248.455 251.637L248.906 251.997C250.534 253.295 252.426 254.224 254.449 254.719C256.472 255.214 258.578 255.263 260.622 254.862C262.667 254.462 264.599 253.622 266.287 252.4C267.974 251.178 269.375 249.604 270.394 247.787C271.413 245.969 272.024 243.952 272.186 241.875C272.348 239.798 272.057 237.711 271.332 235.758C270.607 233.805 269.467 232.033 267.989 230.565C266.512 229.097 264.733 227.968 262.775 227.256Z" fill="#3F3D56"/>
<path d="M257.327 242.223C258.537 242.664 259.874 242.04 260.314 240.83C260.755 239.62 260.131 238.283 258.922 237.843C257.713 237.403 256.375 238.026 255.935 239.236C255.495 240.446 256.118 241.783 257.327 242.223Z" fill="#3F3D56"/>
<path d="M251.124 239.965C252.333 240.406 253.67 239.782 254.111 238.572C254.551 237.362 253.927 236.025 252.718 235.585C251.509 235.144 250.172 235.768 249.731 236.978C249.291 238.188 249.914 239.525 251.124 239.965Z" fill="#3F3D56"/>
<path d="M263.531 244.481C264.741 244.922 266.078 244.298 266.518 243.088C266.959 241.878 266.335 240.541 265.126 240.101C263.917 239.661 262.579 240.284 262.139 241.494C261.699 242.704 262.322 244.041 263.531 244.481Z" fill="#3F3D56"/>
</svg>
