<svg width="249" height="500" viewBox="0 0 249 500" fill="none" xmlns="http://www.w3.org/2000/svg">
<path d="M201.729 500H43.882C20.2069 500 0.945557 481.908 0.945557 459.671V67.7388C0.945557 45.5016 20.2069 27.4102 43.882 27.4102H201.729C225.404 27.4102 244.665 45.5016 244.665 67.7388C247.604 225.127 252.614 401.376 244.665 459.671C244.665 481.908 225.404 500 201.729 500Z" fill="white"/>
<path d="M246.867 171.576C245.865 171.576 245.051 172.341 245.051 173.282V227.877C245.051 228.818 245.865 229.583 246.867 229.583C247.869 229.583 248.683 228.818 248.683 227.877V173.282C248.683 172.341 247.869 171.576 246.867 171.576Z" fill="#E6E6E6"/>
<path d="M229.827 72.6595L240.579 459.664C240.579 479.02 224.54 494.852 204.259 496.081H204.25C203.951 496.098 203.651 496.115 203.342 496.123C202.806 496.149 202.27 496.158 201.726 496.158C201.726 496.158 199.727 496.021 196.076 495.765C192.389 495.509 187.022 495.125 180.328 494.622C178.321 494.477 176.205 494.315 173.971 494.144C169.52 493.803 164.634 493.428 159.394 493.001C157.305 492.839 155.143 492.66 152.936 492.481C141.656 491.568 129.023 490.502 115.7 489.29C113.447 489.094 111.177 488.89 108.888 488.676C108.289 488.617 5.03284 464.236 5.03284 459.664V67.739C5.03284 47.5815 22.4251 31.2456 43.8861 31.2456H67.0818C70.7873 31.2456 73.7662 33.9583 74.0841 37.4302C74.1113 37.6606 74.1386 37.8908 74.184 38.1212C74.8561 41.6102 78.2619 44.0414 82.04 44.0414H163.572C167.35 44.0414 170.756 41.6102 171.428 38.1212C171.473 37.8909 171.5 37.6606 171.528 37.4302C171.845 33.9583 174.824 31.2456 178.53 31.2456H201.726C223.187 31.2456 229.827 52.5019 229.827 72.6595Z" fill="white"/>
<path d="M66.4854 37.2203H31.676C31.5074 37.2203 31.3706 37.3488 31.3706 37.5072V41.1987C31.3706 41.3571 31.5074 41.4856 31.676 41.4856H66.4854C66.6541 41.4856 66.7908 41.3571 66.7908 41.1987V37.5072C66.7908 37.3488 66.6541 37.2203 66.4854 37.2203Z" fill="#E6E6E6"/>
<path d="M184.27 41.4858C186.276 41.4858 187.902 39.9581 187.902 38.0736C187.902 36.1891 186.276 34.6614 184.27 34.6614C182.263 34.6614 180.637 36.1891 180.637 38.0736C180.637 39.9581 182.263 41.4858 184.27 41.4858Z" fill="#E6E6E6"/>
<path d="M194.26 41.4858C196.266 41.4858 197.893 39.9581 197.893 38.0736C197.893 36.1891 196.266 34.6614 194.26 34.6614C192.253 34.6614 190.627 36.1891 190.627 38.0736C190.627 39.9581 192.253 41.4858 194.26 41.4858Z" fill="#E6E6E6"/>
<path d="M204.25 41.4858C206.256 41.4858 207.883 39.9581 207.883 38.0736C207.883 36.1891 206.256 34.6614 204.25 34.6614C202.244 34.6614 200.617 36.1891 200.617 38.0736C200.617 39.9581 202.244 41.4858 204.25 41.4858Z" fill="#E6E6E6"/>
<path d="M204.786 394.565H43.2614C36.759 394.565 31.469 389.596 31.469 383.489V268.767C31.469 262.66 36.759 257.691 43.2614 257.691H204.786C211.289 257.691 216.578 262.66 216.578 268.767V383.489C216.578 389.596 211.289 394.565 204.786 394.565Z" fill="white"/>
<path d="M204.786 394.565H43.2614C36.759 394.565 31.469 389.596 31.469 383.489V268.767C31.469 262.66 36.759 257.691 43.2614 257.691H204.786C211.289 257.691 216.578 262.66 216.578 268.767V383.489C216.578 389.596 211.289 394.565 204.786 394.565ZM43.2614 259.541C37.845 259.541 33.4382 263.68 33.4382 268.767V383.489C33.4382 388.576 37.845 392.715 43.2614 392.715H204.786C210.202 392.715 214.609 388.576 214.609 383.489V268.767C214.609 263.68 210.202 259.541 204.786 259.541H43.2614Z" fill="#3F3D56"/>
<path d="M187.04 271.563C188.671 271.563 189.994 270.321 189.994 268.789C189.994 267.257 188.671 266.014 187.04 266.014C185.408 266.014 184.086 267.257 184.086 268.789C184.086 270.321 185.408 271.563 187.04 271.563Z" fill="#3F3D56"/>
<path d="M194.917 271.563C196.548 271.563 197.871 270.321 197.871 268.789C197.871 267.257 196.548 266.014 194.917 266.014C193.285 266.014 191.963 267.257 191.963 268.789C191.963 270.321 193.285 271.563 194.917 271.563Z" fill="#3F3D56"/>
<path d="M202.794 271.563C204.425 271.563 205.748 270.321 205.748 268.789C205.748 267.257 204.425 266.014 202.794 266.014C201.162 266.014 199.84 267.257 199.84 268.789C199.84 270.321 201.162 271.563 202.794 271.563Z" fill="#3F3D56"/>
<path d="M48.2075 313.643C47.3931 313.643 46.7306 314.265 46.7306 315.03C46.7306 315.403 46.884 315.748 47.1623 316.003C47.4431 316.273 47.8109 316.417 48.2075 316.417H200.824C201.639 316.417 202.301 315.795 202.301 315.03C202.301 314.657 202.148 314.312 201.87 314.057C201.589 313.787 201.221 313.643 200.824 313.643H48.2075Z" fill="#E6E6E6"/>
<path d="M173.255 313.18V316.88H48.2075C47.666 316.88 47.1737 316.676 46.8192 316.334C46.4549 316.001 46.2383 315.539 46.2383 315.03C46.2383 314.013 47.1245 313.18 48.2075 313.18H173.255Z" fill="#F48484"/>
<path d="M198.363 306.244H178.67C176.499 306.244 174.732 304.585 174.732 302.545C174.732 300.505 176.499 298.846 178.67 298.846H198.363C200.534 298.846 202.301 300.505 202.301 302.545C202.301 304.585 200.534 306.244 198.363 306.244Z" fill="#E6E6E6"/>
<path d="M69.377 286.823H49.6845C47.5128 286.823 45.746 285.164 45.746 283.124C45.746 281.083 47.5128 279.424 49.6845 279.424H69.377C71.5486 279.424 73.3155 281.083 73.3155 283.124C73.3155 285.164 71.5486 286.823 69.377 286.823Z" fill="#E6E6E6"/>
<path d="M48.2075 355.26C47.3931 355.26 46.7306 355.882 46.7306 356.647C46.7306 357.02 46.884 357.365 47.1623 357.62C47.4431 357.89 47.8109 358.034 48.2075 358.034H200.824C201.639 358.034 202.301 357.412 202.301 356.647C202.301 356.274 202.148 355.929 201.87 355.674C201.589 355.404 201.221 355.26 200.824 355.26H48.2075Z" fill="#E6E6E6"/>
<path d="M97.4388 354.797V358.497H48.2075C47.666 358.497 47.1737 358.293 46.8192 357.951C46.4549 357.618 46.2383 357.156 46.2383 356.647C46.2383 355.63 47.1245 354.797 48.2075 354.797H97.4388Z" fill="#F48484"/>
<path d="M198.363 347.861H178.67C176.499 347.861 174.732 346.202 174.732 344.162C174.732 342.122 176.499 340.463 178.67 340.463H198.363C200.534 340.463 202.301 342.122 202.301 344.162C202.301 346.202 200.534 347.861 198.363 347.861Z" fill="#E6E6E6"/>
<path d="M35.4 174V103H83.1V115.1H49.2V133.4H77.4V144.6H49.2V174H35.4ZM107.044 103H121.044L147.144 174H132.944L126.344 156.3H101.544L95.0437 174H80.8438L107.044 103ZM123.844 146.6L114.044 117.3L103.844 146.6H123.844ZM182.497 174.5C177.297 174.5 172.564 173.5 168.297 171.5C164.097 169.433 160.464 166.7 157.397 163.3C154.397 159.9 152.064 156.067 150.397 151.8C148.73 147.467 147.897 143.033 147.897 138.5C147.897 133.767 148.764 129.267 150.497 125C152.297 120.667 154.73 116.833 157.797 113.5C160.93 110.1 164.597 107.433 168.797 105.5C173.064 103.5 177.73 102.5 182.797 102.5C187.93 102.5 192.597 103.533 196.797 105.6C201.064 107.667 204.697 110.433 207.697 113.9C210.697 117.367 213.03 121.233 214.697 125.5C216.364 129.767 217.197 134.167 217.197 138.7C217.197 143.367 216.33 147.867 214.597 152.2C212.864 156.467 210.43 160.3 207.297 163.7C204.23 167.033 200.564 169.667 196.297 171.6C192.097 173.533 187.497 174.5 182.497 174.5ZM182.597 162.3C185.93 162.3 188.897 161.633 191.497 160.3C194.097 158.9 196.264 157.067 197.997 154.8C199.73 152.467 201.03 149.9 201.897 147.1C202.83 144.233 203.297 141.367 203.297 138.5C203.297 135.433 202.797 132.467 201.797 129.6C200.864 126.733 199.497 124.2 197.697 122C195.964 119.8 193.797 118.033 191.197 116.7C188.664 115.367 185.797 114.7 182.597 114.7C179.197 114.7 176.197 115.4 173.597 116.8C171.064 118.133 168.93 119.967 167.197 122.3C165.464 124.567 164.13 127.1 163.197 129.9C162.33 132.7 161.897 135.567 161.897 138.5C161.897 141.567 162.364 144.533 163.297 147.4C164.23 150.267 165.564 152.8 167.297 155C169.097 157.2 171.264 158.967 173.797 160.3C176.397 161.633 179.33 162.3 182.597 162.3ZM181.197 147.7H194.197L217.597 174H204.597L181.197 147.7Z" fill="black"/>
</svg>
