<svg width="294" height="225" viewBox="0 0 294 225" fill="none" xmlns="http://www.w3.org/2000/svg">
<path d="M7 224.5C7 224.777 7.25537 225 7.57338 225H293.427C293.745 225 294 224.777 294 224.5C294 224.223 293.745 224 293.427 224H7.57338C7.25537 224 7 224.223 7 224.5Z" fill="#2F2E43"/>
<path d="M154.836 167C154.056 171.853 149.943 175.567 145 175.567C140.057 175.567 135.944 171.853 135.164 167H110V223H180V167H154.836Z" fill="#B6B3C5"/>
<path d="M118 223H111V224H118V223Z" fill="#B6B3C5"/>
<path d="M180 223H174V224H180V223Z" fill="#B6B3C5"/>
<path d="M181 219H110V221H181V219Z" fill="#2F2E41"/>
<path d="M287.075 170H3.92456C1.76053 170 0 168.234 0 166.063V3.93746C0 1.76642 1.76053 0 3.92456 0H287.075C289.239 0 291 1.76642 291 3.93746V166.063C291 168.234 289.239 170 287.075 170Z" fill="#2F2E41"/>
<path d="M284 7H7V163H284V7Z" fill="white"/>
<path d="M251.604 67H236.396C235.075 67 234 65.8786 234 64.5C234 63.1214 235.075 62 236.396 62H251.604C252.925 62 254 63.1214 254 64.5C254 65.8786 252.925 67 251.604 67Z" fill="#D1D1D2"/>
<path d="M268.581 67H261.419C260.085 67 259 65.8786 259 64.5C259 63.1214 260.085 62 261.419 62H268.581C269.915 62 271 63.1214 271 64.5C271 65.8786 269.915 67 268.581 67Z" fill="#D1D1D2"/>
<path d="M100.625 69H53.3744C50.9624 69 49 67.2055 49 65C49 62.7945 50.9624 61 53.3744 61H100.625C103.038 61 105 62.7945 105 65C105 67.2055 103.038 69 100.625 69Z" fill="#FF6584"/>
<path d="M75.3434 81H52.6566C51.1918 81 50 79.4298 50 77.5002C50 75.5702 51.1918 74 52.6566 74H75.3434C76.8082 74 78 75.5702 78 77.5002C78 79.4298 76.8082 81 75.3434 81Z" fill="#D1D1D2"/>
<path d="M197.389 91H51.6112C50.1714 91 49 89.6542 49 88C49 86.3458 50.1714 85 51.6112 85H197.389C198.829 85 200 86.3458 200 88C200 89.6542 198.829 91 197.389 91Z" fill="#D1D1D2"/>
<path d="M184.397 97H51.6026C50.1676 97 49 95.8785 49 94.4999C49 93.1215 50.1676 92 51.6026 92H184.397C185.832 92 187 93.1215 187 94.4999C187 95.8785 185.832 97 184.397 97Z" fill="#D1D1D2"/>
</svg>
