<svg width="404" height="554" viewBox="0 0 404 554" fill="none" xmlns="http://www.w3.org/2000/svg">
<path d="M363.014 196.13L360.446 195.195L386.107 124.692C388.058 119.333 388.936 113.644 388.691 107.948C388.447 102.253 387.085 96.6628 384.684 91.4975C382.282 86.3323 378.888 81.6929 374.694 77.8442C370.501 73.9956 365.59 71.0131 360.243 69.0669L211.2 14.8195C205.853 12.8733 200.174 12.0017 194.488 12.2544C188.801 12.5071 183.219 13.8791 178.059 16.2921C172.899 18.7052 168.263 22.1119 164.414 26.3179C160.566 30.5239 157.582 35.4468 155.631 40.8055L14.852 427.594C10.913 438.416 11.4251 450.356 16.2755 460.788C21.1259 471.22 29.9175 479.288 40.716 483.219L189.76 537.466C200.558 541.396 212.479 540.867 222.9 535.993C233.321 531.12 241.389 522.302 245.328 511.48L342.18 245.381L344.748 246.316L363.014 196.13Z" fill="#3F3D56"/>
<path d="M358.022 80.281L338.567 73.1999C338.662 75.7239 338.135 78.2333 337.034 80.5071C335.932 82.7808 334.29 84.7492 332.252 86.2388C330.213 87.7283 327.841 88.6934 325.344 89.0489C322.847 89.4044 320.302 89.1394 317.933 88.2774L232.547 57.1997C230.178 56.3373 228.058 54.9043 226.374 53.0269C224.69 51.1495 223.493 48.8854 222.889 46.434C222.285 43.9825 222.292 41.419 222.91 38.9693C223.527 36.5195 224.737 34.2587 226.432 32.3861L208.261 25.7723C200.197 22.8372 191.294 23.2328 183.512 26.8721C175.729 30.5115 169.705 37.0964 166.763 45.1784L26.1904 431.399C24.7338 435.401 24.078 439.65 24.2604 443.903C24.4428 448.156 25.4599 452.331 27.2534 456.188C29.047 460.046 31.5819 463.51 34.7136 466.384C37.8453 469.258 41.5123 471.486 45.5053 472.939L195.267 527.448C199.26 528.901 203.501 529.552 207.747 529.363C211.994 529.175 216.162 528.15 220.016 526.348C223.869 524.546 227.332 522.002 230.205 518.861C233.079 515.72 235.308 512.044 236.764 508.042L377.337 121.821C378.794 117.819 379.45 113.57 379.267 109.317C379.085 105.064 378.068 100.889 376.274 97.0319C374.481 93.1746 371.946 89.7099 368.814 86.8358C365.682 83.9617 362.015 81.7344 358.022 80.281Z" fill="white"/>
<path d="M184.061 150.463L152.328 138.913C151.76 138.705 151.297 138.28 151.042 137.731C150.787 137.182 150.759 136.554 150.966 135.984L162.541 104.182C162.749 103.612 163.174 103.148 163.723 102.892C164.271 102.635 164.899 102.607 165.467 102.813L197.2 114.363C197.768 114.57 198.231 114.995 198.486 115.544C198.741 116.094 198.768 116.722 198.562 117.292L186.987 149.094C186.779 149.664 186.354 150.128 185.805 150.384C185.257 150.641 184.629 150.669 184.061 150.463Z" fill="#FF6584"/>
<path d="M232.089 167.943L200.356 156.394C199.788 156.186 199.326 155.761 199.07 155.212C198.815 154.663 198.788 154.034 198.994 153.464L210.569 121.662C210.777 121.093 211.202 120.629 211.751 120.372C212.3 120.116 212.927 120.088 213.496 120.294L245.228 131.843C245.796 132.051 246.259 132.476 246.514 133.025C246.769 133.574 246.797 134.203 246.59 134.773L235.015 166.575C234.807 167.144 234.382 167.608 233.834 167.865C233.285 168.121 232.658 168.15 232.089 167.943Z" fill="#E5E5E5"/>
<path d="M280.115 185.424L248.383 173.874C247.815 173.667 247.352 173.242 247.097 172.692C246.841 172.143 246.814 171.515 247.021 170.945L258.596 139.143C258.804 138.573 259.229 138.109 259.777 137.853C260.326 137.596 260.953 137.568 261.522 137.774L293.254 149.324C293.823 149.532 294.285 149.956 294.54 150.506C294.796 151.055 294.823 151.683 294.616 152.253L283.041 184.055C282.833 184.625 282.408 185.089 281.86 185.345C281.311 185.602 280.684 185.63 280.115 185.424Z" fill="#E5E5E5"/>
<path d="M328.144 202.904L296.411 191.355C295.843 191.147 295.38 190.722 295.125 190.173C294.87 189.624 294.842 188.995 295.049 188.426L306.624 156.623C306.832 156.054 307.257 155.59 307.806 155.333C308.354 155.077 308.982 155.049 309.55 155.255L341.283 166.805C341.851 167.012 342.313 167.437 342.569 167.986C342.824 168.535 342.851 169.164 342.645 169.734L331.07 201.536C330.862 202.105 330.437 202.569 329.888 202.826C329.34 203.082 328.712 203.111 328.144 202.904Z" fill="#E5E5E5"/>
<path d="M162.518 209.298L130.785 197.749C130.217 197.541 129.754 197.116 129.499 196.567C129.244 196.018 129.216 195.39 129.423 194.82L140.998 163.017C141.206 162.448 141.631 161.984 142.18 161.727C142.728 161.471 143.356 161.443 143.924 161.649L175.657 173.199C176.225 173.406 176.688 173.831 176.943 174.38C177.198 174.929 177.225 175.558 177.019 176.128L165.444 207.93C165.236 208.499 164.811 208.963 164.262 209.22C163.714 209.476 163.086 209.505 162.518 209.298Z" fill="#E5E5E5"/>
<path d="M210.545 226.779L178.812 215.229C178.244 215.022 177.782 214.597 177.526 214.048C177.271 213.499 177.244 212.87 177.45 212.3L189.026 180.498C189.234 179.928 189.658 179.465 190.207 179.208C190.756 178.952 191.383 178.923 191.952 179.129L223.684 190.679C224.252 190.887 224.715 191.312 224.97 191.861C225.226 192.41 225.253 193.038 225.046 193.608L213.471 225.411C213.263 225.98 212.838 226.444 212.29 226.7C211.741 226.957 211.114 226.985 210.545 226.779Z" fill="#E5E5E5"/>
<path d="M258.572 244.26L226.84 232.71C226.272 232.502 225.809 232.077 225.554 231.528C225.298 230.979 225.271 230.351 225.478 229.781L237.053 197.978C237.261 197.409 237.686 196.945 238.234 196.689C238.783 196.432 239.41 196.404 239.979 196.61L271.712 208.16C272.28 208.367 272.742 208.792 272.998 209.341C273.253 209.89 273.28 210.519 273.074 211.089L261.498 242.891C261.29 243.461 260.866 243.924 260.317 244.181C259.768 244.437 259.141 244.466 258.572 244.26Z" fill="#FF6584"/>
<path d="M306.6 261.74L274.867 250.19C274.299 249.983 273.836 249.558 273.581 249.009C273.326 248.46 273.298 247.831 273.505 247.261L285.08 215.459C285.288 214.89 285.713 214.426 286.262 214.169C286.81 213.913 287.438 213.884 288.006 214.091L319.739 225.64C320.307 225.848 320.77 226.273 321.025 226.822C321.28 227.371 321.308 228 321.101 228.569L309.526 260.372C309.318 260.941 308.893 261.405 308.344 261.662C307.796 261.918 307.168 261.946 306.6 261.74Z" fill="#FF6584"/>
<path d="M140.975 268.134L109.242 256.585C108.674 256.377 108.211 255.952 107.956 255.403C107.701 254.854 107.673 254.225 107.88 253.655L119.455 221.853C119.663 221.284 120.088 220.82 120.637 220.563C121.185 220.307 121.813 220.278 122.381 220.485L154.114 232.034C154.682 232.242 155.145 232.667 155.4 233.216C155.655 233.765 155.683 234.394 155.476 234.964L143.901 266.766C143.693 267.335 143.268 267.799 142.719 268.056C142.171 268.312 141.543 268.34 140.975 268.134Z" fill="#E5E5E5"/>
<path d="M189.002 285.615L157.269 274.065C156.701 273.858 156.239 273.433 155.983 272.884C155.728 272.334 155.701 271.706 155.907 271.136L167.483 239.334C167.691 238.764 168.115 238.3 168.664 238.044C169.213 237.787 169.84 237.759 170.409 237.965L202.141 249.515C202.709 249.723 203.172 250.148 203.427 250.697C203.683 251.246 203.71 251.874 203.503 252.444L191.928 284.246C191.72 284.816 191.295 285.28 190.747 285.536C190.198 285.793 189.571 285.821 189.002 285.615Z" fill="#E5E5E5"/>
<path d="M237.03 303.095L205.298 291.546C204.73 291.338 204.267 290.913 204.012 290.364C203.756 289.815 203.729 289.187 203.936 288.617L215.511 256.814C215.719 256.245 216.144 255.781 216.692 255.524C217.241 255.268 217.868 255.24 218.437 255.446L250.17 266.996C250.738 267.203 251.2 267.628 251.456 268.177C251.711 268.726 251.738 269.355 251.532 269.925L239.956 301.727C239.748 302.296 239.324 302.76 238.775 303.017C238.226 303.273 237.599 303.302 237.03 303.095Z" fill="#E5E5E5"/>
<path d="M285.057 320.576L253.324 309.026C252.756 308.819 252.293 308.394 252.038 307.845C251.783 307.296 251.755 306.667 251.962 306.097L263.537 274.295C263.745 273.725 264.17 273.262 264.719 273.005C265.267 272.749 265.895 272.72 266.463 272.927L298.196 284.476C298.764 284.684 299.227 285.109 299.482 285.658C299.737 286.207 299.765 286.835 299.558 287.405L287.983 319.208C287.775 319.777 287.35 320.241 286.801 320.497C286.253 320.754 285.625 320.782 285.057 320.576Z" fill="#E5E5E5"/>
<path d="M119.432 326.97L87.6991 315.42C87.1309 315.213 86.6685 314.788 86.4131 314.239C86.1578 313.69 86.1305 313.061 86.3372 312.491L97.9122 280.689C98.1203 280.12 98.5452 279.656 99.0937 279.399C99.6423 279.143 100.27 279.114 100.838 279.321L132.571 290.87C133.139 291.078 133.602 291.503 133.857 292.052C134.112 292.601 134.14 293.229 133.933 293.799L122.358 325.602C122.15 326.171 121.725 326.635 121.176 326.891C120.628 327.148 120 327.176 119.432 326.97Z" fill="#E5E5E5"/>
<path d="M167.459 344.451L135.726 332.901C135.158 332.693 134.696 332.268 134.44 331.719C134.185 331.17 134.158 330.542 134.365 329.972L145.94 298.17C146.148 297.6 146.572 297.136 147.121 296.88C147.67 296.623 148.297 296.595 148.866 296.801L180.598 308.351C181.166 308.558 181.629 308.983 181.884 309.532C182.14 310.082 182.167 310.71 181.96 311.28L170.385 343.082C170.177 343.652 169.752 344.116 169.204 344.372C168.655 344.629 168.028 344.657 167.459 344.451Z" fill="#E5E5E5"/>
<path d="M215.486 361.931L183.754 350.381C183.186 350.174 182.723 349.749 182.468 349.2C182.213 348.651 182.185 348.022 182.392 347.452L193.967 315.65C194.175 315.081 194.6 314.617 195.148 314.36C195.697 314.104 196.324 314.075 196.893 314.282L228.626 325.831C229.194 326.039 229.656 326.464 229.912 327.013C230.167 327.562 230.194 328.191 229.988 328.76L218.413 360.563C218.204 361.132 217.78 361.596 217.231 361.853C216.682 362.109 216.055 362.137 215.486 361.931Z" fill="#E5E5E5"/>
<path d="M263.515 379.412L231.782 367.862C231.214 367.655 230.752 367.23 230.496 366.68C230.241 366.131 230.213 365.503 230.42 364.933L241.995 333.131C242.203 332.561 242.628 332.097 243.177 331.841C243.725 331.584 244.353 331.556 244.921 331.762L276.654 343.312C277.222 343.52 277.685 343.945 277.94 344.494C278.195 345.043 278.223 345.671 278.016 346.241L266.441 378.043C266.233 378.613 265.808 379.077 265.259 379.333C264.711 379.59 264.083 379.618 263.515 379.412Z" fill="#E5E5E5"/>
<path d="M71.9072 458.6L40.1748 447.051C39.6066 446.843 39.1441 446.418 38.8887 445.869C38.6334 445.32 38.6061 444.692 38.8128 444.122L50.3878 412.319C50.5958 411.75 51.0207 411.286 51.5693 411.03C52.1179 410.773 52.7453 410.745 53.314 410.951L85.0465 422.501C85.6147 422.708 86.0772 423.133 86.3325 423.682C86.5878 424.231 86.6152 424.86 86.4085 425.43L74.8334 457.232C74.6254 457.801 74.2005 458.265 73.6519 458.522C73.1034 458.778 72.4759 458.807 71.9072 458.6Z" fill="white"/>
<path d="M119.936 476.081L88.203 464.531C87.6348 464.324 87.1724 463.899 86.917 463.35C86.6617 462.801 86.6344 462.172 86.8411 461.602L98.4161 429.8C98.6242 429.231 99.049 428.767 99.5976 428.51C100.146 428.254 100.774 428.225 101.342 428.432L133.075 439.981C133.643 440.189 134.105 440.614 134.361 441.163C134.616 441.712 134.643 442.341 134.437 442.91L122.862 474.713C122.654 475.282 122.229 475.746 121.68 476.003C121.132 476.259 120.504 476.287 119.936 476.081Z" fill="white"/>
<path d="M167.963 493.562L136.23 482.012C135.662 481.804 135.2 481.379 134.944 480.83C134.689 480.281 134.662 479.653 134.868 479.083L146.443 447.281C146.651 446.711 147.076 446.247 147.625 445.991C148.174 445.734 148.801 445.706 149.37 445.912L181.102 457.462C181.67 457.669 182.133 458.094 182.388 458.643C182.643 459.193 182.671 459.821 182.464 460.391L170.889 492.193C170.681 492.763 170.256 493.226 169.708 493.483C169.159 493.74 168.532 493.768 167.963 493.562Z" fill="white"/>
<path d="M215.99 511.042L184.258 499.493C183.69 499.285 183.227 498.86 182.972 498.311C182.716 497.762 182.689 497.133 182.896 496.563L194.471 464.761C194.679 464.192 195.104 463.728 195.652 463.471C196.201 463.215 196.828 463.186 197.397 463.393L229.129 474.942C229.698 475.15 230.16 475.575 230.415 476.124C230.671 476.673 230.698 477.302 230.491 477.872L218.916 509.674C218.708 510.243 218.283 510.707 217.735 510.964C217.186 511.22 216.559 511.248 215.99 511.042Z" fill="white"/>
<path d="M136.933 406.344C139.301 407.206 141.922 405.98 142.786 403.607C143.649 401.233 142.43 398.611 140.062 397.749C137.693 396.887 135.073 398.112 134.209 400.485C133.345 402.859 134.565 405.482 136.933 406.344Z" fill="#E5E5E5"/>
<path d="M152.371 411.963C154.739 412.825 157.359 411.599 158.223 409.226C159.087 406.852 157.867 404.229 155.499 403.367C153.131 402.505 150.511 403.731 149.647 406.104C148.783 408.478 150.002 411.101 152.371 411.963Z" fill="#E5E5E5"/>
<path d="M167.808 417.581C170.176 418.443 172.797 417.218 173.661 414.845C174.524 412.471 173.305 409.848 170.937 408.986C168.568 408.124 165.948 409.35 165.084 411.723C164.22 414.097 165.44 416.719 167.808 417.581Z" fill="#E5E5E5"/>
</svg>
